<svg xmlns="http://www.w3.org/2000/svg">
<defs>
<font id="DeliciousMocha" horiz-adv-x="842" >
  <font-face 
    font-family="DeliciousMocha"
    font-weight="400"
    font-stretch="normal"
    units-per-em="2048"
    panose-1="2 0 5 0 0 0 0 0 0 0"
    ascent="1638"
    descent="-410"
    x-height="1052"
    cap-height="1317"
    bbox="20 -101 1493 1560"
    underline-thickness="150"
    underline-position="-442"
    unicode-range="U+0020-F002"
  />
<missing-glyph horiz-adv-x="746" 
d="M26 836h158q5 -1 5 -5v-159q0 -4 -5 -4h-158q-5 0 -5 4v159q1 5 5 5zM242 836h38q5 -1 5 -5v-19h24v-20q0 -4 -5 -4h-43v24h-24v19q1 5 5 5zM314 836h14q5 -1 5 -5v-15q0 -4 -5 -4h-19v19q1 5 5 5zM386 836h38q5 -1 5 -5v-19h-43q-5 0 -5 4v15q1 5 5 5zM482 836h38
q5 -1 5 -5v-63q0 -4 -5 -4h-43v-96h-24v24h-24v19q1 5 5 5h19v24h-48v24h-72v19q1 5 5 5h91v24h48v-24h24v24h-24v19q1 5 5 5zM554 836h158q5 -1 5 -5v-159q0 -4 -5 -4h-158q-5 0 -5 4v159q1 5 5 5zM45 812v-120h120v120h-120zM573 812v-120h120v120h-120zM218 812h19v-24
h24v-24h-24v-24h24v24h19q5 -1 5 -5v-19h24v-20q0 -4 -5 -4h-67v-44q0 -4 -5 -4h-14q-5 0 -5 4v135q1 5 5 5zM74 788h62q5 -1 5 -5v-63q0 -4 -5 -4h-62q-5 0 -5 4v63q1 5 5 5zM602 788h62q5 -1 5 -5v-63q0 -4 -5 -4h-62q-5 0 -5 4v63q1 5 5 5zM314 764h19v-20q0 -4 -5 -4
h-19v19q1 5 5 5zM386 740h19v-20q0 -4 -5 -4h-19v19q1 5 5 5zM506 740h14q5 -1 5 -5v-91h19q5 -1 5 -5v-15q0 -4 -5 -4h-19v-48h67q5 -1 5 -5v-39q0 -4 -5 -4h-19v-24h19q5 -1 5 -5v-19h-48v48h-24v-20q0 -4 -5 -4h-19v-24h48v-24h19q5 -1 5 -5v-19h-43q-5 0 -5 4v20h-48v48
h-24v-48h-24v24h-19q-5 0 -5 4v20h24v48h-43q-5 0 -5 4v20h-24v-48h43q5 -1 5 -5v-19h-48v-20q0 -4 -5 -4h-19v48h-24v24h24v43q1 5 5 5h19v24h19q5 -1 5 -5v-19h24v91q1 5 5 5h19v-24h24v-96h48v72h-19q-5 0 -5 4v20h24v67q1 5 5 5zM362 716h19v-68q0 -4 -5 -4h-19v67
q1 5 5 5zM266 692h14q5 -1 5 -5v-15q0 -4 -5 -4h-14q-5 0 -5 4v15q1 5 5 5zM314 692h14q5 -1 5 -5v-43h24v-24h-43q-5 0 -5 4v63q1 5 5 5zM74 644h14q5 -1 5 -5v-15q0 -4 -5 -4h-19v19q1 5 5 5zM146 644h110q5 -1 5 -5v-15q0 -4 -5 -4h-43v-68q0 -4 -5 -4h-19v24h-19

<glyph glyph-name=".notdef" horiz-adv-x="746" 
d="M26 836h158q5 -1 5 -5v-159q0 -4 -5 -4h-158q-5 0 -5 4v159q1 5 5 5zM242 836h38q5 -1 5 -5v-19h24v-20q0 -4 -5 -4h-43v24h-24v19q1 5 5 5zM314 836h14q5 -1 5 -5v-15q0 -4 -5 -4h-19v19q1 5 5 5zM386 836h38q5 -1 5 -5v-19h-43q-5 0 -5 4v15q1 5 5 5zM482 836h38
q5 -1 5 -5v-63q0 -4 -5 -4h-43v-96h-24v24h-24v19q1 5 5 5h19v24h-48v24h-72v19q1 5 5 5h91v24h48v-24h24v24h-24v19q1 5 5 5zM554 836h158q5 -1 5 -5v-159q0 -4 -5 -4h-158q-5 0 -5 4v159q1 5 5 5zM45 812v-120h120v120h-120zM573 812v-120h120v120h-120zM218 812h19v-24
h24v-24h-24v-24h24v24h19q5 -1 5 -5v-19h24v-20q0 -4 -5 -4h-67v-44q0 -4 -5 -4h-14q-5 0 -5 4v135q1 5 5 5zM74 788h62q5 -1 5 -5v-63q0 -4 -5 -4h-62q-5 0 -5 4v63q1 5 5 5zM602 788h62q5 -1 5 -5v-63q0 -4 -5 -4h-62q-5 0 -5 4v63q1 5 5 5zM314 764h19v-20q0 -4 -5 -4
h-19v19q1 5 5 5zM386 740h19v-20q0 -4 -5 -4h-19v19q1 5 5 5zM506 740h14q5 -1 5 -5v-91h19q5 -1 5 -5v-15q0 -4 -5 -4h-19v-48h67q5 -1 5 -5v-39q0 -4 -5 -4h-19v-24h19q5 -1 5 -5v-19h-48v48h-24v-20q0 -4 -5 -4h-19v-24h48v-24h19q5 -1 5 -5v-19h-43q-5 0 -5 4v20h-48v48
h-24v-48h-24v24h-19q-5 0 -5 4v20h24v48h-43q-5 0 -5 4v20h-24v-48h43q5 -1 5 -5v-19h-48v-20q0 -4 -5 -4h-19v48h-24v24h24v43q1 5 5 5h19v24h19q5 -1 5 -5v-19h24v91q1 5 5 5h19v-24h24v-96h48v72h-19q-5 0 -5 4v20h24v67q1 5 5 5zM362 716h19v-68q0 -4 -5 -4h-19v67
q1 5 5 5zM266 692h14q5 -1 5 -5v-15q0 -4 -5 -4h-14q-5 0 -5 4v15q1 5 5 5zM314 692h14q5 -1 5 -5v-43h24v-24h-43q-5 0 -5 4v63q1 5 5 5zM74 644h14q5 -1 5 -5v-15q0 -4 -5 -4h-19v19q1 5 5 5zM146 644h110q5 -1 5 -5v-15q0 -4 -5 -4h-43v-68q0 -4 -5 -4h-19v24h-19
q-5 0 -5 4v20h24v24h-24v-24h-24v43q1 5 5 5zM578 644h110q5 -1 5 -5v-19h19q5 -1 5 -5v-39q0 -4 -5 -4h-14q-5 0 -5 4v20h-67q-5 0 -5 4v20h-24v-20q0 -4 -5 -4h-14q-5 0 -5 4v39q1 5 5 5zM26 620h43v-20q0 -4 -5 -4h-38q-5 0 -5 4v15q1 5 5 5zM98 596h43v-20q0 -4 -5 -4
h-19v-24h-24v43q1 5 5 5zM266 596h14q5 -1 5 -5v-19h19q5 -1 5 -5v-19h-24v-24h24v-20q0 -4 -5 -4h-67v-24h19q5 -1 5 -5v-19h-24v-20q0 -4 -5 -4h-14q-5 0 -5 4v44h-48v-24h-24v48h-19q-5 0 -5 4v44h72v-20q0 -4 -5 -4h-19v-24h48v19q1 5 5 5h43v67q1 5 5 5zM26 572h14
q5 -1 5 -5v-43h24v-24h19q5 -1 5 -5v-91h24v-20q0 -4 -5 -4h-86q-5 0 -5 4v15q1 5 5 5h19v19q1 5 5 5h19v24h-43q-5 0 -5 4v111q1 5 5 5zM626 572h14q5 -1 5 -5v-67h48v24h19q5 -1 5 -5v-39q0 -4 -5 -4h-67v-20q0 -4 -5 -4h-38q-5 0 -5 4v20h24v91q1 5 5 5zM453 548v-24h48
v24h-48zM74 548h19v-20q0 -4 -5 -4h-19v19q1 5 5 5zM674 548h14q5 -1 5 -5v-19h-19q-5 0 -5 4v15q1 5 5 5zM290 476h43v-24h-24v-72h-24v48h-19q-5 0 -5 4v20h24v19q1 5 5 5zM122 452h19v-44q0 -4 -5 -4h-19v43q1 5 5 5zM165 452h19q5 -1 5 -5v-15q0 -4 -5 -4h-14q-5 0 -5 4
v20zM333 452h19q5 -1 5 -5v-19h24v19q1 5 5 5h43v-20q0 -4 -5 -4h-19v-24h43q5 -1 5 -5v-15q0 -4 -5 -4h-43v-44q0 -4 -5 -4h-14q-5 0 -5 4v20h-48v-24h19q5 -1 5 -5v-43h-19q-5 0 -5 4v20h-24v24h-72v-24h19q5 -1 5 -5v-15q0 -4 -5 -4h-19v-24h-19q-5 0 -5 4v68h-43
q-5 0 -5 4v20h24v24h-24v19q1 5 5 5h38q5 -1 5 -5v-19h24v-24h24v24h24v-24h24v24h24v72zM453 452h24v-20q0 -4 -5 -4h-14q-5 0 -5 4v20zM573 428h19q5 -1 5 -5v-15q0 -4 -5 -4h-14q-5 0 -5 4v20zM650 428h14q5 -1 5 -5v-43h-24v-20q0 -4 -5 -4h-19v43q1 5 5 5h19v19
q1 5 5 5zM698 428h14q5 -1 5 -5v-183q0 -4 -5 -4h-19v24h-19q-5 0 -5 4v20h24v48h-19q-5 0 -5 4v44h24v43q1 5 5 5zM357 404v-24h24v24h-24zM242 404h14q5 -1 5 -5v-19h-24v19q1 5 5 5zM482 404h14q5 -1 5 -5v-15q0 -4 -5 -4h-14q-5 0 -5 4v15q1 5 5 5zM146 380h19v-24h-19
q-5 0 -5 4v15q1 5 5 5zM530 380h38q5 -1 5 -5v-19h48v-24h19q5 -1 5 -5v-19h19q5 -1 5 -5v-19h-24v-20q0 -4 -5 -4h-19v-68q0 -4 -5 -4h-43v48h-24v-48h24v-24h-24v-20q0 -4 -5 -4h-14q-5 0 -5 4v44h-19q-5 0 -5 4v20h-24v-68q0 -4 -5 -4h-14q-5 0 -5 4v111q1 5 5 5h19v24
h24v48h-24v-48h-43q-5 0 -5 4v39q1 5 5 5h19v19q1 5 5 5h67v19q1 5 5 5zM26 356h62q5 -1 5 -5v-15q0 -4 -5 -4h-62q-5 0 -5 4v15q1 5 5 5zM525 332v-72h72v72h-72zM26 308h158q5 -1 5 -5v-159q0 -4 -5 -4h-158q-5 0 -5 4v159q1 5 5 5zM290 308h19v-68q0 -4 -5 -4h-19v67
q1 5 5 5zM386 308h14q5 -1 5 -5v-15q0 -4 -5 -4h-19v19q1 5 5 5zM554 308h14q5 -1 5 -5v-15q0 -4 -5 -4h-14q-5 0 -5 4v15q1 5 5 5zM45 284v-120h120v120h-120zM357 284h24v-24h19q5 -1 5 -5v-19h19q5 -1 5 -5v-87q0 -4 -5 -4h-14q-5 0 -5 4v68h-24v-20q0 -4 -5 -4h-67v-44
q0 -4 -5 -4h-14q-5 0 -5 4v20h-19q-5 0 -5 4v15q1 5 5 5h19v24h72v24h-19q-5 0 -5 4v15q1 5 5 5h19v24zM74 260h62q5 -1 5 -5v-63q0 -4 -5 -4h-62q-5 0 -5 4v63q1 5 5 5zM237 260h19q5 -1 5 -5v-19h24v-24h-48v48zM674 236h19v-24h19q5 -1 5 -5v-15q0 -4 -5 -4h-62
q-5 0 -5 4v15q1 5 5 5h19v19q1 5 5 5zM218 212h19v-20q0 -4 -5 -4h-14q-5 0 -5 4v15q1 5 5 5zM338 164h14q5 -1 5 -5v-15q0 -4 -5 -4h-14q-5 0 -5 4v15q1 5 5 5zM573 164h43q5 -1 5 -5v-15q0 -4 -5 -4h-38q-5 0 -5 4v20zM698 164h14q5 -1 5 -5v-15q0 -4 -5 -4h-14q-5 0 -5 4
v15q1 5 5 5z" />
    <glyph glyph-name=".null" horiz-adv-x="0" 
 />
    <glyph glyph-name="nonmarkingreturn" horiz-adv-x="305" 
 />
    <glyph glyph-name="space" unicode=" " horiz-adv-x="307" 
 />
    <glyph glyph-name="space" unicode="&#xa0;" horiz-adv-x="307" 
 />
    <glyph glyph-name="dollar" unicode="$" horiz-adv-x="791" 
d="M522 1557v-6l-50 -90v-3l2 -14h-2q-107 73 -108 76v6q9 0 119 28q15 -6 31 -6q0 4 8 9zM333 1517h9q129 -87 138 -104q7 -59 17 -59q15 -3 28 -3h40q18 0 130 -93q0 -3 -3 -3q8 -27 11 -57h-3q-135 91 -378 201q-48 69 -48 73zM347 1368q31 0 311 -158q56 -31 56 -54
q14 -55 14 -65q-77 -85 -81 -85q-80 29 -119 71q-162 132 -313 234v3q7 6 147 31l-15 20v3zM607 1345h6q118 -20 118 -28q-25 -42 -28 -42h-3q-93 67 -93 70zM198 1306q201 -133 406 -314q40 -39 153 -141q-5 -31 -12 -31q-5 0 -279 181q-39 17 -59 34q0 5 79 34v5
q-12 2 -57 23q-45 -14 -65 -14q0 4 -28 19q-6 -22 -17 -22q-109 60 -231 113q-3 5 -3 8q32 76 42 76q65 29 71 29zM79 1181q62 -25 235 -112v-3q0 -9 -12 -26q83 0 127 -36q76 -41 274 -175q42 -22 42 -31q-5 -34 -5 -43q0 -18 3 -73q-49 -93 -71 -155h-6q-195 186 -203 197
v6l23 8q0 4 -14 12q-5 0 -9 -14q-19 0 -104 84q-184 159 -339 274v3q15 26 59 84zM82 1026h6v-3h-6v3zM93 1018h3q6 -1 6 -6h-3q-6 0 -6 6zM107 1006h3q6 0 6 -5h-3q-6 0 -6 5zM119 998h3q61 -44 138 -113h-3q-57 15 -82 57q-3 0 -56 56zM658 961h6q3 0 107 -36
q-9 -54 -17 -54zM175 854q12 0 229 -155q37 20 45 20q0 -4 212 -209q0 -13 -17 -40q-30 0 -130 93q-195 145 -342 223q-53 23 -53 29zM105 803q171 -84 361 -220q64 -50 118 -99v-3q-66 12 -101 20l-6 -3q-223 170 -403 280v8zM390 769h3q4 0 8 -8h-3q-4 0 -8 8zM79 761
q233 -150 438 -313q16 -16 53 -68v-6q-41 -59 -45 -59q-6 6 -214 107l3 34v20l2 14q-224 37 -240 42l31 57q0 9 -33 169zM311 402q17 0 206 -101q0 -4 -14 -14q-167 29 -167 36q-25 59 -28 60q3 11 3 19z" />
    <glyph glyph-name="zero" unicode="0" horiz-adv-x="929" 
d="M534 1498q188 -91 248 -142q92 -65 99 -76v-169q0 -6 -6 -6q-237 176 -386 251q-69 49 -144 85v6zM311 1421q148 -54 290 -152q122 -90 274 -186q6 -7 6 -12l14 -155h-3q-413 372 -547 446q-45 36 -51 45q8 14 17 14zM282 1393q53 -41 198 -141l76 -65v-3q-16 0 -45 3
q-62 -35 -135 -65q-11 -56 -17 -56q-112 66 -254 130v5q35 58 175 192h2zM93 1187q124 -58 269 -138q-9 -32 -9 -68v-23h-3q-145 111 -276 204q2 8 19 25zM584 1162h3q114 -88 311 -271q5 -31 8 -136q-3 0 -3 -3l-256 156v2l39 113h-3q-90 65 -90 71zM65 1148
q116 -74 288 -212q-3 -67 -3 -99v-39q0 -6 -5 -6q-137 89 -314 186v6q15 164 29 164h5zM31 961q167 -91 319 -189v-110q84 -32 119 -39h104q21 0 220 -158q17 -15 17 -17v-3q-178 -59 -211 -74q-201 223 -339 331l-240 189v3q4 67 11 67zM644 891q231 -136 262 -158v-3
q3 -64 3 -96q-56 -111 -56 -116h-6l-217 201q0 39 5 169q6 3 9 3zM26 863h2q171 -113 458 -387q54 -57 98 -113q-1 -6 -146 -76q-204 134 -266 149q-90 38 -90 48q-3 10 -56 379zM632 696q167 -152 209 -195v-3q-17 -32 -17 -36q-12 0 -110 84q-5 0 -101 74v3h11q3 38 3 56
v11q1 6 5 6z" />
    <glyph glyph-name="one" unicode="1" horiz-adv-x="404" 
d="M364 1402q20 -53 20 -65l-6 -3q-80 39 -87 39v6zM271 1371q109 -53 110 -57l-11 -197h-3q-96 70 -279 189q0 3 14 14h70q39 42 99 51zM76 1292h6q171 -107 285 -195q0 -28 -3 -85l-5 -3q-209 114 -333 172q-6 56 -6 74q37 17 56 37zM34 1162q132 -61 325 -170l3 -5
q0 -20 -9 -158h-6l-194 141q0 8 5 53q-50 -19 -56 -19h-3q-54 33 -54 36v9l3 17q-5 16 -17 93q3 0 3 3zM40 1021h5q34 -21 34 -26v-3q-7 0 -42 -14q0 3 -3 3q6 36 6 40zM150 947h5q123 -82 195 -141v-28q-5 0 -209 99zM144 860q120 -55 203 -102v-3q-5 -127 -5 -141l-9 -6
q-47 39 -206 139v3q11 110 17 110zM130 730q139 -91 209 -141q-6 -81 -6 -116q-3 -5 -3 -8l-223 104v3q15 158 23 158zM107 552q114 -49 223 -107q-2 -58 -5 -82h-6q-10 0 -186 -76q-37 56 -48 82q17 183 22 183z" />
    <glyph glyph-name="two" unicode="2" horiz-adv-x="717" 
d="M407 1416q19 0 67 -65q59 -68 71 -68q96 -37 96 -56l45 -77q-25 -101 -25 -112l8 -63h-5q-222 151 -511 325v6l28 73q77 -6 118 -6q97 43 108 43zM147 1286q183 -110 271 -169v-3h-56q-18 -12 -181 -144q-130 45 -130 53l-31 170q33 53 68 53q55 23 56 31q0 3 3 9z
M460 1094q196 -128 215 -147q0 -8 3 -20q-48 -123 -54 -132q-140 62 -254 104l-3 6q9 76 40 76l73 45q-11 25 -25 65zM367 885q147 -54 251 -104v-6q-50 -121 -50 -130h-9q-129 81 -231 136q26 91 39 104zM325 769l228 -135v-6q-10 -11 -53 -39h-3q-127 56 -226 96
q38 57 51 84h3zM263 671q155 -55 220 -96q-11 -5 -11 -9q47 0 169 -68q34 -10 34 -33l22 -156h-2q-262 170 -486 277v6q51 79 54 79zM201 575q257 -124 485 -280v-3q-25 -5 -39 -5q-50 0 -240 3l-362 98v3q118 146 156 184zM590 544q82 -13 82 -20v-23q-6 0 -82 37v6z
M34 377l294 -79v-6h-3q-56 0 -274 3q-23 38 -31 68q0 4 14 14z" />
    <glyph glyph-name="three" unicode="3" horiz-adv-x="805" 
d="M404 1416q195 -22 195 -40q104 -51 112 -76q60 -71 60 -79q-51 -114 -51 -158q-5 -62 -11 -62q-248 249 -435 409v3q113 3 130 3zM249 1410q119 -89 460 -429v-3q0 -11 -6 -70q23 -74 23 -93q-141 103 -283 197q11 6 23 6q-9 107 -20 107l-70 85q-134 -79 -139 -79
q0 3 -110 62l-3 5l26 158zM127 1176q71 -36 71 -40v-3q-69 16 -79 26v11q0 6 8 6zM257 1049h3q66 -59 70 -59q81 16 91 16h3q158 -97 319 -225q33 -94 42 -110l-3 -34v-144q-15 -18 -42 -26q-3 13 -246 252v2q3 6 3 9q-26 28 -62 39l-181 173v2q1 21 9 29q-6 45 -6 76z
M251 925l147 -139h-5q-135 51 -167 68v6q18 65 25 65zM486 704q232 -222 240 -242v-6q-8 0 -40 -20q-13 0 -124 93l-150 116v6q62 18 62 42zM170 682l70 -105h3q42 20 51 20q45 -25 217 -178q24 -18 48 -42q-40 -29 -152 -39q-48 0 -150 -51h-3q-101 0 -101 14
q-71 75 -77 113l-56 45q86 165 116 186q29 37 34 37zM393 640q108 -75 271 -212q0 -8 -91 -45q-64 61 -259 223q6 5 79 34z" />
    <glyph glyph-name="four" unicode="4" horiz-adv-x="892" 
d="M593 1402h6q131 -87 163 -99l57 -43q-35 -203 -43 -203q-146 96 -344 203v3q83 122 96 122q59 17 65 17zM774 1314h5q15 0 43 -31v-3h-3q-41 28 -45 28v6zM816 1311h6q5 -1 5 -5v-3h-5q-6 0 -6 5v3zM426 1246q197 -106 350 -206v-2q-14 -99 -22 -99q-219 168 -364 259v3
q26 45 36 45zM381 1187q193 -125 373 -265v-3q-6 -56 -14 -56q-231 149 -404 239q-11 0 -11 9q45 69 56 76zM314 1094q134 -64 350 -198q76 -51 76 -53q0 -7 -12 -62l6 2h96q40 -39 40 -180q2 0 2 -20q-7 -6 -8 -6h-3q-182 154 -384 302v3l12 28q-3 0 -23 -22h-3l-197 138v3
q46 65 48 65zM257 1012q115 -72 198 -138q-5 0 -62 -65h2q62 10 62 25q11 28 17 29q175 -125 367 -288v-6q-84 -23 -84 -68q-6 -8 -12 -8q-250 140 -601 274q-48 18 -48 22q140 202 161 223zM88 775q428 -166 655 -299v-3q-52 -147 -65 -147h-12q-120 90 -228 161v3l3 28
q-117 28 -156 65q-223 133 -234 144q32 47 37 48zM43 713q218 -130 231 -144h-3q-200 55 -200 73q-51 37 -51 40q19 31 23 31zM443 467q142 -96 201 -144q0 -7 -65 -16q-145 70 -147 76q3 57 3 79zM435 363q116 -56 118 -62v-3q-6 0 -53 -11q-56 35 -71 53v17q1 6 6 6z" />
    <glyph glyph-name="five" unicode="5" horiz-adv-x="802" 
d="M215 1455q333 -36 333 -51q127 -55 127 -70l65 -161q-9 -6 -14 -6q-303 91 -554 158v12q0 60 37 104q0 5 6 14zM573 1410h3q93 -8 93 -14q-2 -31 -8 -31q-88 40 -88 45zM175 1308q250 -64 525 -146v-6q-45 -21 -206 -34h-17q-129 65 -307 133l-3 5q2 48 8 48zM170 1241
q157 -62 282 -119v-5q-57 0 -57 -26l-14 -34q240 -118 249 -127q11 -19 11 -22h-3q-190 65 -485 141q11 151 11 186q6 0 6 6zM158 1032q305 -76 503 -147q0 -4 121 -181q-17 -51 -17 -56h-3q-4 0 -214 107q-366 172 -401 192v3q0 82 11 82zM144 927h3q30 -11 240 -110v-5
l-93 -20q-139 37 -147 42q-3 3 -6 34q3 43 3 59zM520 752q132 -62 237 -121v-3q-29 -84 -29 -90h-2q-8 0 -232 82q-42 11 -42 17q56 69 56 84q5 31 12 31zM170 696h5l167 -130q0 3 93 57q23 0 285 -102q-64 -138 -73 -138q-10 -6 -17 -6q-196 122 -494 251q1 16 34 68z
M130 617q265 -116 483 -246v-2q-86 -37 -93 -37q-231 79 -500 147v2zM82 448q183 -46 412 -122v-5q-146 -34 -158 -34q-50 64 -82 96h-11q-85 0 -99 17q-39 24 -62 45v3z" />
    <glyph glyph-name="six" unicode="6" horiz-adv-x="819" 
d="M486 1413q4 0 31 -31h-6q-35 20 -39 20v8zM449 1399q111 -56 138 -85q6 -7 6 -11q-14 -62 -14 -68q-12 0 -96 76q-74 57 -76 62v6zM387 1368q76 -53 186 -156q-3 0 -3 -2q-118 56 -248 110v3q12 21 65 45zM311 1308q186 -74 257 -115q-6 -19 -6 -26h-3q-154 71 -268 113
l-3 6q2 0 23 22zM277 1269q152 -51 254 -110v-3q-45 0 -59 -31q-103 45 -254 104v3q42 17 59 37zM198 1221q136 -51 265 -107v-3q-24 -48 -56 -48q0 -6 -51 -17q-103 34 -243 73q-3 6 -3 9q0 65 14 65q68 28 74 28zM110 1105q114 -31 220 -65q0 -3 -31 -93h3q61 3 91 3
q95 28 101 28q106 -42 116 -62q29 -39 135 -107l54 -147l-31 -39h-3q-262 200 -471 321q-170 96 -189 113q2 46 5 48zM102 1035q22 0 372 -220q123 -81 285 -209q-5 0 -5 -9h-3q-336 153 -697 274v6l48 135v23zM539 992q23 -18 23 -25h-3q-39 14 -42 14v3q2 8 22 8zM48 860
q204 -71 347 -127v-3q-43 -47 -96 -113l-259 169q3 33 3 48v17zM43 767q72 -45 282 -184q-17 -43 -17 -62q36 -17 87 -25q10 33 17 33q186 -129 212 -143v-9q0 -6 -6 -6q-330 161 -584 254q6 65 6 125v11zM441 716q157 -65 299 -130q0 -8 -43 -71q-48 -121 -62 -121h-3
q-215 150 -217 150q0 7 9 19l62 -14q-12 49 -12 57q3 14 20 45l-25 22h-3l-28 -2l-3 5v34q1 6 6 6zM37 608q258 -94 539 -231q31 -17 31 -20l-56 -65q-140 -2 -161 -5q-90 21 -150 65q-35 21 -220 146q9 110 17 110zM20 479h3l220 -147v-3q-130 33 -130 48q0 5 -93 99v3z
" />
    <glyph glyph-name="seven" unicode="7" horiz-adv-x="765" 
d="M96 1373q195 -7 195 -22q170 -84 367 -206v-3q-22 -63 -34 -73q-239 128 -596 256l-2 6v28q0 9 70 14zM314 1359q129 0 180 -31q142 -65 206 -90v-3q-26 -73 -36 -79q-217 137 -350 198v5zM491 1348q254 -14 254 -20q-30 -68 -39 -79q-210 93 -215 93v6zM26 1308h5
q350 -123 565 -242q22 -7 22 -17q-48 -108 -56 -122q-186 116 -186 119v3q36 63 36 76q-242 19 -242 34q-137 71 -142 79v22q0 15 -2 48zM34 1215q98 -52 116 -59v-6q-122 10 -122 48v12q1 5 6 5zM370 1032q174 -108 186 -122q-18 -42 -22 -42q-186 83 -206 93q28 57 42 71z
M322 947l206 -90v-3q-62 -150 -71 -155q-197 121 -203 121v3q5 25 68 124zM249 812q197 -121 203 -127l-43 -102h-2l-235 96v3q63 116 77 130zM170 665q109 -42 228 -96v-3q-68 -161 -73 -161q-97 75 -215 158v6q50 96 60 96zM105 552q155 -113 214 -164v-2q-14 -18 -25 -99
h-3q-209 18 -209 42q-62 69 -62 76q69 130 85 147z" />
    <glyph glyph-name="eight" unicode="8" horiz-adv-x="881" 
d="M311 1455l158 -36q145 25 161 25q110 -71 115 -82q7 -13 60 -90q-3 -56 -3 -76h-3q-322 169 -511 248v3q14 8 23 8zM271 1435q257 -107 449 -217h-3q-218 93 -505 184v2q0 6 59 31zM189 1396q381 -121 607 -231l3 -6q0 -11 -40 -79q-240 143 -519 271q-49 20 -62 31
q6 13 11 14zM170 1368q190 -84 347 -170v-5q-69 -26 -110 -26q0 -1 -9 -42q34 -65 40 -85q101 85 101 93q-5 48 -5 54h2q121 -61 215 -121v-3l-71 -133q8 0 34 -31h-5q-182 65 -596 201q-12 49 -17 56q9 141 17 141q53 70 57 71zM119 1080h3q465 -147 635 -215
q25 -14 87 -169q17 -29 17 -45q-18 -82 -25 -82q-378 244 -644 392q-53 26 -53 43zM153 967q202 -111 276 -161q-46 -47 -84 -110q0 -21 -9 -23l-268 88v3q87 173 87 178q-5 21 -5 22q3 0 3 3zM520 752h2q141 -92 314 -200q-5 -48 -37 -48h-3q-157 65 -293 116q13 34 19 42
l-2 20v70zM62 747q201 -62 274 -88v-3q-20 -76 -20 -81q99 14 181 31q200 -71 274 -110q0 -4 -110 -43q-114 -79 -127 -79q-237 156 -514 288v6q37 77 42 79zM23 645q220 -105 499 -276v-9q-6 -1 -113 -73q-45 0 -338 209q-43 25 -43 42q-2 23 -8 104q3 0 3 3z" />
    <glyph glyph-name="nine" unicode="9" horiz-adv-x="833" 
d="M446 1416q119 -12 141 -12q75 -91 209 -225l6 -57l-6 -3q-177 158 -350 294v3zM424 1410q149 -110 381 -316q0 -25 8 -104q-2 -12 -6 -12q-305 224 -477 308q-70 39 -76 39q19 51 54 51q99 34 116 34zM246 1314q241 -117 511 -316q0 -3 53 -40q0 -108 -36 -270h-6
q-160 154 -299 273v3q33 31 73 93q-3 39 -3 48h-48q-5 0 -5 6v34l-3 28l-48 -56h-3q-62 62 -68 62q-47 -29 -50 -29q14 -61 14 -67h-6q-157 123 -158 127q73 103 82 104zM155 1196q130 -99 178 -144q0 -6 -5 -6q-69 54 -187 133q11 17 14 17zM133 1165q229 -145 229 -184
q0 -7 56 -59h3q14 14 20 14q52 -38 318 -294v-5q-32 -53 -36 -54h-3q-381 374 -542 483l-76 56v3q28 40 31 40zM93 1108q153 -93 472 -395q7 0 146 -144q0 -12 -28 -48q-149 99 -242 147v8l48 76v3q-74 -51 -85 -51q-36 0 -167 74q-115 48 -115 62q0 57 -43 96
q-59 74 -59 85q67 87 73 87zM452 950h5q144 -120 311 -285v-3h-6zM127 809h3q9 0 178 -82v-6l-169 31q-6 16 -12 57zM429 656q22 0 246 -149q-142 -105 -195 -121q-8 10 -141 124q37 100 59 113q27 33 31 33zM254 518q67 -7 91 -31l121 -107v-6q-13 0 -116 -87h-5
q-18 0 -156 79l82 84q-11 38 -22 65z" />
    <glyph glyph-name="A" unicode="A" horiz-adv-x="1053" 
d="M525 1455q158 -96 167 -96q5 0 82 20q5 -8 36 -141l-5 -3q-158 57 -319 110l-3 6q16 27 39 104h3zM477 1334q342 -113 342 -124l76 -305h-6q-267 161 -491 276v3q74 148 79 150zM393 1167q235 -119 510 -288q0 -7 6 -28q-3 0 -3 -3q-256 133 -525 246q-22 7 -22 14
q30 59 34 59zM353 1091q297 -124 565 -265l67 -282q-215 166 -372 271v2l28 -2q-58 97 -62 98h-3q-24 -44 -37 -53q-105 62 -237 135q46 95 51 96zM297 981q158 -85 234 -135v-3l-6 -12q49 0 139 -70q124 -80 330 -243q14 -48 14 -73q-266 141 -799 364v6q79 155 88 166z
M206 795l477 -206v-6q-257 -25 -257 -37v-2q-173 99 -273 149v3q40 99 53 99zM147 682q271 -146 271 -155q-83 -135 -88 -136h-2q-141 51 -280 96l-3 6q96 189 99 189h3zM711 575q285 -133 308 -156q14 -53 14 -62q-65 -48 -121 -48q-52 -11 -82 -14q-114 73 -127 85
q0 35 6 192q2 0 2 3zM37 473q22 0 282 -93v-6q-19 -31 -53 -31h-164q-12 8 -82 93q0 12 17 37zM706 357q92 -55 101 -65v-2l-25 -3q-82 37 -82 42v14q1 14 6 14z" />
    <glyph glyph-name="B" unicode="B" horiz-adv-x="906" 
d="M393 1427q180 -34 180 -51q86 -101 107 -101q125 -34 125 -48l28 -88l-6 -3q-209 118 -547 280v3l5 2q13 0 108 6zM243 1416q16 0 562 -280q50 -23 50 -70l-36 -40q-259 113 -263 113v11l-20 -5q-231 93 -476 158q-6 0 -6 5v17q0 37 34 54q27 31 56 31q63 6 99 6z
M54 1289h3q186 -45 457 -150v-6q-66 -28 -133 -28q-21 -40 -31 -45q-85 40 -302 121l3 29v22q0 19 3 57zM54 1165q180 -65 288 -116l3 -6q-46 -78 -46 -82h3q144 34 155 34q225 -100 367 -203l57 -152q-15 4 -308 143q-251 119 -530 226q5 133 5 153zM551 1125
q134 -54 254 -107q0 -15 -91 -108q-4 -12 -17 -19q-66 38 -223 113v2q54 55 54 65q15 45 23 54zM43 990q45 0 539 -226q189 -86 304 -150q-12 -149 -22 -149q-142 94 -271 158v2q0 7 56 17q-77 68 -90 68h-79q-63 0 -257 102q-148 67 -183 90v31q0 18 3 57zM43 882
q245 -115 299 -146q-43 -144 -57 -175q-63 22 -257 79q9 187 9 239zM31 623q222 -60 251 -79l-2 -15q26 9 31 9q176 -61 375 -155v-6q-73 -79 -85 -79q-4 -2 -135 -11q-370 31 -390 39q-56 34 -56 43q6 254 11 254zM568 623q134 -69 296 -175v-3q-143 -37 -167 -54
q-152 78 -358 150v5q125 29 192 65z" />
    <glyph glyph-name="C" unicode="C" horiz-adv-x="921" 
d="M325 1441h209q159 0 333 -56v-3q0 -4 -23 -57q0 -22 17 -172q-18 -11 -34 -11q-261 138 -545 260v2zM822 1416q59 -4 59 -12q0 -4 -9 -8l-50 14v6zM268 1390q284 -117 534 -251v-3q0 -5 -9 -5q-31 0 -245 31q-93 -31 -107 -31q-24 0 -286 62q-42 6 -42 14q55 111 79 116
q13 15 76 67zM105 1190q168 -37 228 -54v-3q-3 -87 -3 -115q0 -19 6 -99h-3q-269 107 -276 116q0 89 42 141q0 5 6 14zM57 1018q273 -111 282 -122v-2q-9 -94 -14 -94l-285 85q11 104 17 133zM43 868q138 -37 282 -85v-2q0 -10 -3 -14q23 -99 23 -108h104q10 0 85 -45
q302 -8 302 -22l65 -167q-7 -6 -99 -23q0 -3 -11 -5q-381 206 -734 367q-26 8 -26 14q6 90 12 90zM34 758q246 -106 737 -367v-3q-16 -8 -26 -8q-356 135 -697 243q-28 35 -28 39q4 96 14 96zM74 597h5q291 -90 644 -223v-3q-7 -9 -195 -84q-212 92 -271 141
q-114 75 -138 118q-7 3 -45 51z" />
    <glyph glyph-name="D" unicode="D" horiz-adv-x="986" 
d="M635 1362q12 -4 12 -8h-6q-6 0 -6 5v3zM599 1359q132 -68 225 -130q95 -130 105 -141q0 -5 -6 -19q-310 155 -612 273v6q61 0 288 11zM649 1351h6v-3h-6v3zM268 1345q313 -121 658 -293v-3q-3 -115 -3 -170l-3 -14q12 -48 37 -189h-6q-257 167 -279 184q-37 221 -42 228
q-174 80 -204 91q-47 -9 -183 -40l3 -28q-3 0 -3 -3q-202 106 -206 110q3 74 3 116v3q1 5 5 5q12 0 12 -2q24 2 28 2q153 3 183 3zM40 1198q197 -98 209 -113l17 -189h-3q-214 86 -229 96q0 73 3 204q3 0 3 2zM37 973q219 -86 231 -102l20 -215q-3 0 -3 -2l-257 141
q3 28 3 42v119q0 7 6 17zM672 840q240 -152 291 -189q3 -20 3 -23q-20 -11 -54 -36q-240 108 -277 132v3q29 113 34 113h3zM31 775q153 -80 260 -141q3 -38 3 -54l5 -3h77q30 0 273 -166v-6l-65 -36q-292 133 -556 225l-2 6q2 100 2 158v11zM630 704h2q156 -66 260 -124
q0 -2 -226 -161q-205 132 -240 150v6q18 0 175 73q18 0 29 56zM28 580q226 -79 503 -203q37 -15 37 -20q-121 -70 -125 -70q-375 11 -375 17q-42 49 -48 50l3 15v48q0 54 3 160q2 0 2 3z" />
    <glyph glyph-name="E" unicode="E" 
d="M79 1385q198 -13 198 -29q305 -122 505 -234q-40 -25 -110 -25q-292 113 -587 200q-48 10 -48 17q31 63 42 71zM305 1365l404 -31q19 -45 107 -201v-2q-6 -3 -9 -3q-235 124 -502 231v6zM31 1297q303 -84 599 -200v-6l-302 -22v-99q0 -6 -6 -6q-58 33 -282 144l-20 175
q5 13 11 14zM45 1088q314 -146 616 -338v-3h-23l-127 -45q-211 87 -446 166l-22 217q2 0 2 3zM630 967q26 -34 53 -161q2 0 17 -56l-5 -3q-320 197 -339 197v9h3l262 11q6 3 9 3zM74 848q221 -70 415 -152v-6q-122 -43 -122 -50q-8 -27 -11 -48q-62 26 -274 132
q-11 107 -14 122zM85 704h3q152 -69 262 -132q0 -6 -20 -91q141 29 150 29q127 -63 336 -181v-3q0 -12 -217 -19q-213 95 -492 197q-2 3 -22 200zM762 569q9 -83 34 -147q26 -63 26 -82q-174 101 -317 173v5q13 0 257 51zM113 487q251 -90 443 -178v-5h-3l-423 -17l-3 5
q0 46 -20 192z" />
    <glyph glyph-name="F" unicode="F" horiz-adv-x="760" 
d="M54 1435h25q22 0 336 -175q103 -54 192 -112v-3q-123 -20 -138 -20q-219 96 -435 161q-11 0 -11 8v20l-3 17q27 96 34 104zM133 1433q54 0 536 -14q25 -20 71 -40v-6q-5 -21 -71 -172q6 -16 9 -45l-40 -8q-261 159 -505 279v6zM28 1272q38 0 413 -147v-6
q-136 -16 -136 -22l-17 -136h3l319 14l14 3q6 -7 28 -175q-50 -31 -62 -31q-188 112 -556 316q-6 61 -6 184zM40 1069q360 -197 516 -297v-3h-3q-52 -2 -64 -2q-136 81 -359 166q-88 32 -90 37q-3 60 -3 84l-3 12zM45 950q236 -85 415 -181v-5l-161 -12q-2 -33 -2 -48v-11
q0 -5 -6 -5q-1 4 -243 141q-5 73 -5 118q2 0 2 3zM54 809q207 -117 243 -141q-3 -15 -3 -17q0 -34 -6 -189q-3 0 -3 -3q-93 42 -223 93q-11 223 -14 254zM68 535q155 -62 220 -93l-3 -14v-59q0 -10 12 -77l-34 -2h-124l-29 -3q-39 55 -39 84q-6 135 -6 153q-3 5 -3 8z" />
    <glyph glyph-name="G" unicode="G" horiz-adv-x="923" 
d="M508 1486h6q76 -51 102 -51q62 -5 67 -5q67 14 85 20l39 -79q65 -12 77 -17q-12 -42 -17 -54q-193 99 -398 172v6q36 8 39 8zM441 1467q257 -90 423 -184q-26 -101 -34 -102q-132 -31 -164 -31q-163 118 -386 263v8q153 46 161 46zM266 1402h8l373 -252v-2q0 -6 -133 -29
q-100 65 -311 175v3q63 99 63 105zM198 1280q129 -64 296 -163v-6l-45 -11q-11 0 -141 17q0 -6 -6 -6l-149 104v3q40 62 45 62zM144 1201q123 -78 155 -107q-33 -87 -33 -93l8 -31l-6 -3q-101 62 -217 116q0 11 82 110q0 7 11 8zM40 1074q203 -102 242 -132q29 -72 29 -159
l-6 -2q-46 36 -262 180q-6 78 -6 110q3 0 3 3zM711 975q167 -102 167 -121l14 -195h-3q-278 228 -341 271q0 16 34 43h62q28 0 67 2zM748 975h124q6 0 6 -8q0 -15 -3 -79l-5 -3q-73 56 -122 85v5zM45 939q194 -126 269 -181q0 -37 22 -37q61 -38 153 -84q191 -141 349 -271
v-6q-5 0 -28 -22q-12 3 -186 98q-222 122 -567 277q-23 10 -23 14l14 119q-3 59 -3 81q-2 6 -2 9q2 0 2 3zM536 922q224 -170 356 -288q3 -5 3 -11v-23q0 -6 -6 -6q-124 82 -330 206q0 5 -56 85v3q28 34 33 34zM587 764h3q163 -95 308 -192q5 -78 5 -110q-40 -81 -50 -85h-3
q-224 179 -339 257v6h62l68 -29q25 75 25 85q-59 12 -59 28q-6 18 -20 40zM37 707q277 -118 756 -378v-6q0 -13 -115 -36q-96 79 -113 79q-221 17 -401 59q-144 169 -144 175q7 107 17 107z" />
    <glyph glyph-name="H" unicode="H" horiz-adv-x="997" 
d="M703 1427q207 -34 254 -65q3 -102 3 -155v-34l-3 -6q-160 74 -333 139q-8 48 -8 59zM232 1365q23 0 36 -127h-2l-243 56v48q0 20 37 20h14q47 0 158 3zM630 1289q239 -92 333 -144v-130l-316 110l-20 161q3 0 3 3zM28 1277q246 -51 246 -62q31 -160 37 -175h3l350 -19
q-9 38 -12 84q82 -22 314 -107v-3q2 -204 2 -251l3 -20l-5 -3q-312 151 -943 415v136q1 5 5 5zM23 1117h3q699 -288 945 -415v-71l-3 -6q-349 133 -731 229q-63 17 -211 51l-3 5v207zM26 891q334 -76 595 -158v-6q-115 9 -336 28q0 -35 -8 -51q-252 99 -254 99q-3 6 -3 9
q0 20 3 76q3 0 3 3zM28 786q249 -94 249 -101q-20 -180 -26 -189q-17 5 -228 50l-3 6v229q0 5 8 5zM635 724h3q140 -42 333 -116l3 -28v-14q0 -60 3 -183q-6 0 -322 158q-6 0 -20 183zM23 532q228 -48 228 -53q-11 -91 -11 -102q0 -18 11 -79l-5 -3q-180 74 -218 74
q-8 0 -8 5v153zM655 521h3q313 -149 313 -158l-59 -59q-77 28 -246 84q-11 99 -11 133zM844 312h3q47 -17 54 -17v-8q-57 19 -57 25z" />
    <glyph glyph-name="I" unicode="I" horiz-adv-x="353" 
d="M218 1317h8q99 -12 99 -20v-39l-3 -6q-130 56 -138 56v6zM141 1311q106 -39 184 -76q3 -154 3 -245v-63h-6l-288 192q3 57 3 85v88q0 15 104 19zM34 1097h6q282 -184 288 -192v-26q0 -14 2 -48h-2l-297 139q3 33 3 48v79zM34 950q217 -94 296 -141v-215q0 -14 3 -42
l-5 -3q-108 71 -300 189v3q3 141 3 206q3 0 3 3zM28 719h3q174 -104 299 -190l3 -5v-203h-3q-21 5 -307 124zM26 428q284 -113 290 -121l-5 -3l-246 -17l-45 22q3 38 3 57v56z" />
    <glyph glyph-name="J" unicode="J" horiz-adv-x="703" 
d="M553 1401q119 -41 119 -46l11 -166q-26 -20 -36 -20q-236 119 -497 215v5q357 12 403 12zM107 1387q296 -110 500 -215q28 -9 28 -17q-10 -4 -25 -17q-33 3 -48 3h-45v-25q0 -6 -9 -6q-231 87 -480 155q0 17 -8 82zM34 1248q209 -56 455 -144l28 -14q5 -161 5 -237
q-2 0 -2 -3q-134 68 -311 150q-6 17 -6 73v74h-25q-138 25 -138 34l-9 64q3 0 3 3zM206 983q189 -82 319 -152v-85q-6 0 -319 104v133zM206 831h6q316 -97 316 -108q0 -45 6 -248l-6 -3q-109 81 -319 209v135zM212 661q153 -88 322 -209q2 -33 2 -48v-73q-87 -125 -95 -133
h-3q-101 29 -246 65v3q0 5 65 45l11 14q-31 0 -53 74q-3 27 -3 59v110q0 30 -3 90q3 0 3 3zM195 246q166 -39 231 -59v-3q-100 -116 -118 -116l-62 -16l-71 67q12 127 20 127z" />
    <glyph glyph-name="K" unicode="K" horiz-adv-x="977" 
d="M878 1396q42 -84 42 -93q-2 -11 -11 -11q-76 42 -178 90v5q126 9 147 9zM110 1393q181 -28 198 -45q23 -21 65 -45q-7 -86 -11 -107q-149 64 -342 138v3q81 56 90 56zM695 1385q185 -88 206 -110q-148 -198 -150 -198h-3q-58 42 -223 144l-3 6q88 145 96 152q9 3 77 6z
M333 1351q43 -7 43 -14l-3 -14h-6q-34 20 -34 25v3zM23 1314q130 -41 336 -133l3 -5l-9 -133h-3q-155 90 -310 175q-12 0 -17 11v85zM23 1207q129 -59 327 -184v-2l-8 -99v-3h3q34 67 48 79q204 -127 228 -155l189 -254h-5q-333 179 -692 330q-83 30 -87 39q-3 143 -3 223
v26zM511 1207h3q11 0 220 -136l9 -11q-29 -34 -32 -34q-91 50 -234 119q34 58 34 62zM472 1131q178 -85 231 -119q-88 -122 -99 -133h-3l-203 133q60 105 74 119zM26 936h2q346 -131 813 -384q10 -15 116 -155q-99 -71 -138 -71q-273 173 -285 187q-190 234 -198 239
q9 -95 9 -118l-6 -3q-98 67 -311 195l-2 5v105zM28 809q189 -113 319 -201l15 -172l-6 -2q-172 70 -328 127v132q0 42 -2 113q2 0 2 3zM37 544q327 -124 327 -133q0 -25 6 -65l-73 -59h-3l-178 56q-37 3 -79 3q-6 0 -6 6v28q0 54 -3 161q6 3 9 3zM576 462h6l211 -136v-5
l-121 -26l-6 9v45z" />
    <glyph glyph-name="L" unicode="L" horiz-adv-x="703" 
d="M263 1435q24 -9 67 -79q-11 -133 -16 -144q-109 40 -294 99v48q0 6 87 23q141 53 156 53zM23 1294q245 -76 293 -98q-19 -200 -19 -232q-3 0 -3 -3q-86 47 -271 139v45q0 44 -3 147q3 0 3 2zM28 1080q151 -72 266 -136q-8 -107 -14 -107q-114 42 -254 90v74q0 24 -3 76z
M31 910q151 -47 251 -90v-3q-9 -122 -14 -132l-240 118v6q0 14 -2 99zM28 783h3q128 -57 237 -115v-3q-5 -79 -5 -90l5 2q158 6 173 6l231 -124q11 -83 11 -102q-6 -8 -36 -70q-370 18 -370 28q-72 23 -240 62l-3 6q-6 377 -6 400zM652 594q14 -63 17 -113q-23 7 -197 102v3
zM43 360q12 0 192 -45v-6l-178 9q-14 33 -14 39v3z" />
    <glyph glyph-name="M" unicode="M" horiz-adv-x="1169" 
d="M994 1450q53 -81 53 -127q0 -12 6 -51h-3q-4 0 -130 130q64 48 74 48zM195 1447q69 -34 220 -116l175 -279h6q0 3 70 141h3q79 -36 342 -195q79 -45 79 -59l45 -429h-3q-313 316 -313 321q-9 43 -14 43l-9 -17q-13 0 -70 59q-332 302 -506 412q-59 43 -59 45q26 60 34 74
zM774 1393q61 -39 70 -39q57 39 65 39q147 -147 147 -152q28 -255 28 -268l-6 -3q-161 105 -400 240v2q91 179 96 181zM373 1376h8q5 0 12 -11v-3h-3q-17 7 -17 11v3zM161 1354q204 -136 469 -367q125 -116 152 -147q-34 -48 -37 -48q-371 306 -604 443q13 119 20 119z
M141 1215h3q210 -119 590 -432v-8q-58 -81 -85 -113q-127 110 -290 237q-23 30 -23 34h-3v-8h-8l-206 158q17 132 22 132zM116 1063h6q204 -153 206 -161q-57 -447 -65 -460q-213 122 -218 127q3 10 71 494zM401 848q131 -100 240 -200q-43 -59 -45 -59h-3q-10 18 -192 257
v2zM827 795h3q40 -36 310 -316q0 -18 3 -37l-5 -3q-51 51 -291 265q0 10 -20 91zM858 671h3q241 -213 285 -260q3 -15 3 -25v-9q-9 -23 -141 -54q0 4 -90 91q-60 247 -60 257zM48 549q156 -87 215 -127q0 -73 -37 -73q-162 -62 -172 -62q-34 87 -34 96q21 166 28 166z
M926 380h3q4 0 59 -59v-6q-5 0 -65 -17q0 9 3 82z" />
    <glyph glyph-name="N" unicode="N" horiz-adv-x="966" 
d="M853 1441q28 -48 28 -161q5 -20 8 -115q3 0 3 -3l-6 -3q-127 96 -242 169l-3 6v31q0 16 28 70zM249 1421q16 -56 79 -124q0 -4 22 -34v-3q-143 46 -327 96l-3 6v9q51 28 93 28q5 3 136 22zM23 1340q237 -60 350 -105l141 -192h-6q-233 123 -482 249l-3 5v43zM647 1311
q117 -77 245 -175q6 -49 6 -82l-6 -2q-121 48 -257 104q3 155 12 155zM28 1275q230 -115 517 -269v-5q-222 99 -519 197v31q0 15 -3 43zM26 1179h2q241 -73 477 -175q69 -29 79 -51q35 -46 43 -62h3v51h2q154 -69 286 -147q11 -141 11 -170h-3q-393 256 -691 404
q-185 85 -207 99v37zM638 1139q253 -101 263 -107l14 -203l-6 -3q-100 61 -277 152v6q0 47 3 152q3 0 3 3zM28 1105h3q231 -94 551 -279q1 0 350 -223q0 -5 2 -34l-5 -3q-334 158 -562 246l-62 90h-3q0 -68 -8 -68q-71 26 -257 79q-3 10 -3 12q0 82 -6 180zM40 896
q125 -31 259 -79v-2q-2 -75 -2 -102q-3 0 -3 -3q-247 111 -254 121l-3 17v43zM40 809h3l254 -116q-3 -15 -3 -17q0 -68 -9 -290q-23 -29 -28 -29q-183 31 -203 37q-3 38 -14 415zM393 786q201 -77 499 -217q45 -19 45 -28l9 -150l-23 -11q-203 128 -403 226l-130 177
q3 0 3 3zM545 575h3q181 -88 353 -198v-3q-22 -15 -192 -70q-17 81 -57 121l-107 147v3zM60 377l169 -28v-6l-158 -56q-9 30 -14 87q3 0 3 3z" />
    <glyph glyph-name="O" unicode="O" horiz-adv-x="1070" 
d="M576 1385q156 -72 429 -223q45 -135 45 -144v-43q0 -5 -5 -5q-204 172 -514 389q-9 0 -17 12v2q48 12 62 12zM624 1382q173 -12 181 -17q171 -123 177 -138q12 -28 12 -40h-3q-250 135 -367 189v6zM489 1368q184 -115 556 -415l2 -6v-101l-2 -6q-251 157 -257 166
q-5 48 -23 48q-82 0 -138 48q-215 121 -322 173v5q41 62 68 62q113 26 116 26zM294 1266q200 -101 350 -195v-2l-79 11q-46 -20 -51 -20q-83 66 -243 178v3q19 25 23 25zM260 1227q125 -83 237 -173q0 -4 -20 -11q-69 -3 -110 -3l-186 102q45 41 79 85zM170 1128
q135 -65 194 -105v-2q-30 -71 -39 -82q-146 98 -203 141v3q20 24 48 45zM110 1069q209 -144 209 -147q-29 -60 -56 -107q34 -57 39 -71q-245 135 -248 144q20 161 31 161q20 20 25 20zM799 978q218 -136 246 -158v-11q0 -9 -51 -141v-3h-6q-132 113 -147 135q0 6 -45 175
q3 0 3 3zM51 865q89 -41 277 -155q59 -107 67 -107q64 -23 218 -62q117 -72 203 -141v-3q-107 -45 -113 -45h-3q-281 216 -652 488v11zM48 823q554 -410 635 -477v-6l-51 -19q-242 153 -601 327l-3 6q13 169 20 169zM844 775l138 -127v-8q0 -5 -8 -9q-4 7 -138 105v2
q1 37 8 37zM841 716q127 -95 130 -102q-51 -144 -59 -144l-124 113v3q45 73 45 96q0 34 8 34zM28 634q375 -184 585 -316v-3q-4 -6 -60 -28q-214 48 -403 107q0 7 -130 178q3 44 8 62zM776 566h6q65 -51 127 -113q0 -26 -76 -45l-164 116q1 4 107 37v5z" />
    <glyph glyph-name="P" unicode="P" horiz-adv-x="873" 
d="M110 1416q251 -55 305 -93q129 -56 361 -184q37 -71 37 -76h-3q-377 178 -745 316v3q38 34 45 34zM51 1371q438 -167 779 -336q23 -43 23 -51q-43 -72 -43 -79h-8l-218 133v5l20 31q-20 47 -25 54q-74 -37 -82 -37q0 4 -68 88q-3 0 -36 -37h-3q-274 140 -370 183v23
q24 23 31 23zM409 1348h161q37 -8 164 -56l34 -127l-6 -3q-137 80 -353 180v6zM23 1308q81 -36 355 -175v-5q-19 -17 -19 -74h-3l-330 127v3l-6 122q3 0 3 2zM31 1165l325 -127v-3q-14 -141 -23 -141q-124 81 -302 177q-3 38 -3 57v20l-2 14zM37 1054q420 -244 598 -364
q-17 -17 -22 -17q-277 139 -539 246q-37 12 -37 17l-6 116zM576 1023q135 -75 223 -135q-13 -25 -17 -25q-50 25 -231 107q0 27 25 53zM545 953q23 0 231 -105q0 -17 -107 -129q0 -3 -20 -17h-2l-243 152h3l11 -3q112 43 116 48q11 50 11 54zM43 916q267 -107 556 -251v-3
q-43 -48 -94 -48q-39 -14 -62 -14q-238 160 -403 254v40l-3 19zM390 863h5v-3h-5v3zM45 834q104 -61 379 -234v-6l-164 46l-3 -6q0 -65 -8 -65l-198 68q-8 145 -8 194q2 0 2 3zM57 620q183 -61 194 -71q-10 -195 -16 -195h-3q-48 47 -136 96q-36 18 -39 29q0 30 -6 138z
M60 453h5q94 -52 153 -104q-18 -14 -85 -31h-3q-11 0 -70 20l2 19q-2 72 -2 96zM57 323q48 -11 48 -16v-3q-51 -17 -60 -17q6 26 12 36z" />
    <glyph glyph-name="Q" unicode="Q" horiz-adv-x="1160" 
d="M601 1410h218q143 -104 220 -186q78 -87 101 -107q-16 -86 -25 -113l-528 400v3zM562 1399h6q338 -246 544 -415q-14 -65 -14 -74q-10 0 -82 57q-331 234 -621 381v8q160 43 167 43zM376 1345q344 -185 632 -389q1 0 85 -65q-11 -136 -17 -136q-77 65 -260 201
q0 43 -51 129q-62 65 -82 65q-74 6 -90 6q-39 -14 -45 -14q-168 117 -249 164v2q12 11 77 37zM282 1303q3 0 249 -167q-23 -5 -85 -62q-18 -39 -28 -39l-246 124q51 119 63 124zM167 1142q5 0 245 -119v-8q-9 -13 -22 -51h-3q-128 92 -232 158q7 20 12 20zM153 1108
q149 -99 231 -161q0 -6 -17 -65l20 -67l-6 -3q-84 53 -305 169v3q69 119 77 124zM71 967q190 -96 324 -181q6 -18 6 -19q-5 -29 -11 -29q-147 106 -330 215v3q2 11 11 11zM54 939q185 -109 336 -218v-2q0 -12 -17 -82l214 -99q0 4 23 20q121 -97 223 -192v-3l-209 -65
q-224 140 -525 308q-25 35 -79 285q25 48 34 48zM824 933l257 -197q-3 -24 -5 -82h-6q-82 53 -243 152v3q-3 73 -8 121zM647 865q12 0 84 -67q119 -8 119 -23q184 -111 223 -144v-39l-3 -20q42 -33 42 -74q3 -40 3 -45l-45 -51h-3q-238 210 -454 390q25 49 34 73zM607 775
q133 -99 452 -387q-9 -9 -9 -14q-10 0 -90 62q-170 125 -390 266v2q34 71 37 71zM570 682q209 -127 463 -319l3 -6q-3 0 -31 -34l-34 3h-31q-6 0 -79 45q-19 0 -68 54l-172 144q37 34 37 37q-93 17 -93 25q0 27 5 51zM119 577q285 -158 482 -282v-3q-10 -5 -22 -5
q-237 38 -237 45q-166 123 -172 133q-54 109 -54 112h3z" />
    <glyph glyph-name="R" unicode="R" horiz-adv-x="904" 
d="M452 1464h11q223 -40 223 -60q107 -41 107 -62q0 -6 23 -70h-6q-196 113 -358 186v6zM418 1458q179 -78 404 -209q33 -82 62 -183l-37 -105h-6q-312 228 -694 455v5zM113 1416h9q427 -261 685 -446q31 -25 31 -28q-19 -51 -19 -57h-9q-120 72 -279 155l-3 6q14 12 14 23
q-36 53 -59 62l-59 45q-45 -23 -48 -31v-23h-3q-154 68 -345 144q-6 0 -8 116q87 34 93 34zM28 1252q195 -75 345 -150v-2l-11 -119q12 7 47 31h3q33 0 99 3q6 13 11 14q158 -81 288 -161v-3q-18 -21 -99 -84l40 -144h-6q-351 261 -669 446q-45 13 -45 45q0 29 -5 121
q2 0 2 3zM40 1085q217 -121 488 -307q167 -119 231 -172l20 -74q-8 0 -251 153q-262 155 -485 259q-3 25 -9 139zM45 927q310 -147 686 -383q60 -37 60 -48q36 -137 36 -150h-3q-161 123 -335 237q-58 119 -68 119q-161 11 -161 25q-211 126 -215 133v3q0 19 -2 62q2 0 2 2z
M48 834q12 0 237 -141l20 -90q-3 0 -3 -3q-105 53 -245 113q-6 0 -9 121zM60 696q173 -71 251 -119l42 -200l-6 -3q-9 0 -98 6q-104 -28 -110 -28h-3q-65 15 -65 22q-14 300 -17 319zM511 546h6q156 -100 319 -228l5 -26h-5q-155 98 -283 173zM573 434h6l228 -139v-5h-2
q-23 0 -164 -3q-23 63 -68 147zM74 354h2q27 -8 29 -8v-6q-26 -5 -29 -5l-2 5v14z" />
    <glyph glyph-name="S" unicode="S" horiz-adv-x="890" 
d="M678 1402q46 -53 96 -105v-3h-3q-160 90 -170 99q4 3 77 9zM576 1390q187 -107 215 -127l31 -101h-3q-228 122 -474 217v6q12 0 124 -3zM302 1382q328 -127 528 -246q17 -44 17 -59h-107q-285 51 -285 62q-46 50 -110 68v-3q17 -82 22 -82h11v-8h-8q-126 86 -220 146v6
q21 85 31 85zM150 1244q181 -116 206 -139q-17 -10 -17 -14q19 0 99 -96q91 0 110 -22q196 -143 307 -240v-3q0 -6 -5 -6q-360 236 -615 347q-70 34 -130 57v5q38 110 42 111h3zM102 1114q304 -123 638 -333q104 -69 104 -77q-25 -53 -39 -98h-6q-315 221 -692 446
q-5 0 -5 62zM105 1035q36 -15 265 -158q322 -209 429 -291q-14 -43 -20 -85h-3l-206 127v3l20 3q-3 38 -3 54l-5 2h-62l-60 17q-4 0 -34 -3q-12 6 -14 12q14 35 14 51q-69 28 -127 48q0 -6 -5 -6q-54 -3 -71 -3q-113 149 -113 158zM556 987h17l40 -43h-3q-50 37 -54 37v6z
M647 922h2q24 0 77 -3q38 -76 81 -104q61 -44 63 -48q-3 -17 -9 -17l-214 169v3zM141 673l96 -67q6 2 9 2q164 9 290 20q105 -57 240 -144v-3q-7 -79 -17 -79l-191 -53q-164 131 -452 319q5 3 25 5zM85 662h3q11 0 228 -147q109 -72 237 -172q-88 -34 -101 -34
q-138 79 -398 249q-3 5 -3 8q26 96 34 96zM43 544q20 -5 217 -136q168 -101 172 -101v-3q0 -8 -48 -17q-214 32 -214 36q-112 129 -150 144v3q23 67 23 74z" />
    <glyph glyph-name="T" unicode="T" horiz-adv-x="954" 
d="M776 1390q142 -50 142 -59q11 -111 11 -141l-6 -3q-163 107 -324 192v6q106 2 144 2zM827 1390h9q7 -5 11 -5v-6h-3q-9 6 -17 6v5zM565 1382q201 -107 367 -217l2 -17q-76 -48 -98 -48q-44 -4 -51 -6q-307 151 -666 271h-3v6q374 11 449 11zM88 1359q279 -87 525 -200
q101 -47 130 -65v-3h-3q-33 0 -99 -6q11 -117 11 -138l-5 -3q-189 111 -604 325q0 16 45 90zM40 1249h3q122 -57 496 -257q116 -65 116 -70l6 -54q-3 0 -3 -3q-147 85 -356 178l-3 17h-31q-227 89 -240 99zM31 1139l187 -73v-6h-71q-45 0 -127 34v3q0 42 11 42zM308 1026
q285 -131 356 -183l19 -235l-5 -2q-121 83 -362 237q-11 159 -14 180zM322 820q212 -130 364 -237q3 -29 3 -45v-6h-6q-214 115 -358 184v3q0 14 -6 98q3 0 3 3zM328 696q204 -94 364 -186l11 -113q-3 0 -3 -3q-101 56 -364 195zM342 569q241 -125 364 -195q0 -15 3 -48
q-95 -39 -96 -39q-50 3 -82 3h-42q-28 0 -130 45q-7 0 -20 234h3zM364 318q30 -14 37 -14v-6q-45 7 -45 14q0 6 8 6z" />
    <glyph glyph-name="U" unicode="U" horiz-adv-x="943" 
d="M886 1385q26 -75 26 -91q3 -217 6 -240l-6 -2l-263 203q-2 15 -2 25v23l2 5l34 -2h28q31 10 175 79zM65 1365q64 -3 254 -107q0 -68 -11 -68q-35 26 -254 155v6q7 14 11 14zM45 1334l269 -161q-15 -193 -17 -212h-6q-88 47 -268 130l-3 6v200q22 37 25 37zM220 1328
q102 -22 102 -28v-17q0 -6 -6 -6q-90 46 -96 46v5zM649 1232h6q157 -117 263 -203v-17q0 -30 2 -90h-5q-86 66 -257 172l-3 6q0 23 -6 132zM26 1074q201 -92 271 -132q-5 -102 -15 -102q-82 57 -259 164l-3 5v60q1 5 6 5zM658 1074h3q131 -76 259 -178q3 -97 3 -141h-3
q-129 107 -256 203l-3 17q0 15 -3 99zM23 987q177 -107 265 -167l-3 -20q3 -13 3 -36q-104 59 -268 146v71zM669 936q167 -124 251 -203v-3q-25 -136 -31 -136h-3q-78 57 -237 161v3q20 38 20 42q0 24 -5 133zM26 891q188 -99 273 -153q17 -77 17 -93v-45q0 -6 -5 -6
q-137 105 -291 204v87q1 6 6 6zM20 775h6q113 -68 290 -203q0 -26 29 -37q1 -6 39 -34q15 3 25 3l223 -175v-8q-11 0 -141 -34q-72 13 -192 93q-180 101 -183 107l-96 251v37zM644 741q146 -92 242 -166v-3q-24 -138 -31 -138q-194 146 -200 155q-42 82 -42 90q12 31 31 62z
M672 552h3q123 -90 180 -138q-3 -23 -11 -23l-195 141q0 2 23 20zM491 529q101 -34 105 -39q3 0 39 31h3q196 -135 203 -147v-3q-178 -42 -189 -42l-226 181q0 7 65 19zM133 456h3q151 -83 211 -124h-5q-176 49 -187 59q-22 56 -22 62v3z" />
    <glyph glyph-name="V" unicode="V" horiz-adv-x="997" 
d="M960 1489l11 -54q-3 0 -3 -2q-88 42 -90 48v2q23 0 82 6zM844 1478q133 -60 133 -74v-17q-27 -115 -37 -115q-9 9 -237 158v5q55 37 59 37q55 6 82 6zM686 1421h3q151 -94 251 -166v-3q-56 -195 -56 -203h-3q-39 14 -254 130q48 240 53 240zM215 1407q8 -10 8 -48h-3
q-59 19 -59 26v2zM133 1376q107 -36 107 -51q17 -31 17 -39q-158 67 -161 73v3q7 0 37 14zM74 1351q198 -85 200 -96l45 -90q-3 0 -3 -3q-158 79 -285 135q-11 35 -11 40q18 3 54 14zM43 1275q111 -45 290 -139q57 -115 57 -121h-3l-322 183q-22 68 -22 77zM76 1173h3
q122 -65 328 -186q98 -204 98 -209h-2q-169 79 -342 141q-6 0 -85 254zM624 1159q121 -55 251 -127v-3l-25 -99h-9q-134 93 -231 153l-3 5q9 59 17 71zM604 1069q92 -55 237 -156v-3l-11 -47q-8 0 -113 73l-127 79q9 46 14 54zM590 998q95 -55 232 -150v-5q-22 -93 -29 -93
q-111 80 -225 155v5q16 88 22 88zM167 902q200 -73 350 -147q11 -19 14 -19q0 11 5 11q173 -86 226 -116q-39 -139 -39 -144h-9q-208 133 -511 299q-36 105 -36 116zM565 888q100 -61 226 -155q-19 -85 -29 -85q-222 111 -226 119q23 113 29 121zM215 758h3q21 0 468 -268
q28 -19 28 -23q-37 -155 -53 -155q-107 -14 -130 -14q-186 72 -192 82q-124 374 -124 378zM350 354h3q137 -56 141 -56v-6q-27 -5 -53 -5q-65 33 -91 59v8z" />
    <glyph glyph-name="W" unicode="W" horiz-adv-x="1513" 
d="M119 1512q163 -19 163 -37q51 -16 51 -51l31 -118l-5 -3q-75 63 -252 200q0 7 12 9zM99 1489q111 -80 277 -217q2 -23 25 -96q-3 0 -3 -3q-127 76 -372 203q-6 21 -6 28q73 85 79 85zM305 1483h9q5 0 5 -5v-3h-3q-11 4 -11 8zM861 1478q6 -1 6 -6v-5h-3q-4 0 -9 8z
M838 1467q46 -21 46 -63q2 -2 90 -316h-3l-282 178v3l56 116l-14 42q94 40 107 40zM1462 1461q31 -102 31 -110v-9q0 -5 -5 -5q-69 51 -105 73v3q65 48 79 48zM1363 1404h6q91 -62 116 -84q-37 -111 -37 -116h-8l-206 141v3q7 31 14 31q22 -25 36 -25q0 2 79 50zM37 1354
q223 -113 367 -201q8 -16 62 -223h-3q-186 141 -387 277q-5 14 -42 144q3 0 3 3zM1231 1328q165 -108 209 -144q-50 -166 -60 -166q-35 38 -194 189q36 121 45 121zM683 1252q217 -132 299 -192q65 -228 68 -243h3q53 164 59 164q163 -111 212 -152q-79 -239 -85 -249h-3
q-312 282 -626 528v3q68 138 73 141zM1183 1190q195 -187 195 -189q0 -11 -48 -153h-6q-112 81 -209 144v3q59 195 68 195zM85 1181h3q173 -113 386 -279q8 -39 15 -39q5 19 11 19q108 -79 203 -163q-37 -115 -37 -122h-5q-316 263 -520 384zM604 1094q284 -222 511 -426h-3
q-317 255 -528 389v3q15 34 20 34zM579 1043q124 -78 186 -130q-54 -175 -59 -175q-199 157 -201 161q68 138 74 144zM150 956h5q228 -140 503 -379q-51 -164 -62 -191q-26 5 -187 112q-153 98 -158 105q-5 28 -101 353zM774 908h2q204 -145 455 -359q-57 -178 -76 -217h-6
q-92 91 -294 279q-5 15 -81 297zM1118 665h3q4 0 11 -11h-3q-4 0 -11 11zM1140 645h6v-3h-6v3zM864 577h3q95 -76 276 -262v-3q-10 -25 -17 -25q-133 65 -208 96zM263 572h5q209 -131 246 -161v-3h-3l-155 -25q-57 24 -57 67q-5 10 -36 122z" />
    <glyph glyph-name="X" unicode="X" horiz-adv-x="1079" 
d="M960 1467q17 -61 22 -94l-5 -2l-119 84v3zM833 1452q79 -50 138 -96q-61 -112 -68 -115q-167 82 -259 118v3q17 73 34 73q90 17 155 17zM91 1433q57 0 132 -48q136 -74 254 -150l68 -124q6 3 28 62q115 -71 212 -150v-2q-55 -101 -62 -105q-296 157 -610 285l-93 110z
M376 1419q75 -137 81 -153h-2q-155 95 -254 144v6l110 -14zM638 1348q126 -54 260 -121v-3q-100 -179 -105 -184h-2l-212 150q39 117 59 158zM141 1173h3q338 -139 596 -285l319 -443v-9h-3q-300 221 -692 474l-223 260v3zM390 871h5q353 -221 655 -452v-2q0 -6 -5 -6
q-363 263 -683 415q23 44 28 45zM356 812q237 -115 440 -249q143 -89 249 -169q-18 -56 -32 -56q-5 0 -203 -20q-10 0 -36 68q-218 262 -221 262q0 -5 -42 -87q-12 0 -166 118q-25 10 -51 37q51 86 62 96zM288 699q124 -84 212 -155v-3q-89 -181 -96 -181l-243 133
q117 201 127 206zM155 479q110 -56 243 -130v-6q-51 -56 -59 -56q-217 35 -217 45l-23 59q44 78 56 88z" />
    <glyph glyph-name="Y" unicode="Y" horiz-adv-x="1008" 
d="M257 1382q85 -43 85 -82h-3q-101 58 -110 68q0 7 28 14zM209 1359q142 -79 147 -90q93 -219 96 -231h-3q-186 96 -404 186l-25 53q52 13 189 82zM726 1345q200 -43 200 -51q62 -71 62 -82l-45 -50q-207 159 -223 166q0 8 6 17zM711 1320l221 -167q0 -12 -34 -48l-243 141
q42 63 56 74zM649 1232q214 -119 237 -141q-85 -106 -90 -107q-122 94 -212 158v3q49 72 65 87zM65 1201q266 -113 401 -192q6 -18 6 -19h2l12 11q139 -74 220 -127q-3 -9 -119 -144h-3q-166 130 -445 319l-79 149zM576 1131q136 -97 209 -158v-3q-54 -73 -71 -82
q-120 71 -220 124v3q79 115 82 116zM158 1018q207 -136 418 -299l3 -6v-34h-3q-208 138 -364 226l-57 113h3zM232 877q176 -99 347 -221v-222h-3q-254 214 -268 231v51q0 7 -71 141q-5 8 -5 20zM308 640h3q183 -153 268 -232v-116q0 -5 -6 -5q-83 0 -116 34q-146 81 -158 93
q6 152 6 211zM299 391q48 -18 173 -99v-2q-82 -3 -105 -3q-70 5 -70 14v34q0 18 2 56z" />
    <glyph glyph-name="Z" unicode="Z" horiz-adv-x="943" 
d="M167 1371q195 -10 195 -17q355 -347 355 -359v-3q-35 -49 -51 -62q-381 326 -553 424v8h3q9 0 51 9zM381 1356q283 -13 283 -22q10 -8 217 -124v-9q-141 -183 -155 -195q0 13 -345 348v2zM99 1348q132 -84 325 -231v-6q-154 8 -184 8q-124 106 -133 122q-8 44 -8 107z
M692 1337l161 -9q70 -65 70 -70q-25 -38 -31 -40q-194 113 -200 113v6zM116 1212l93 -87v-3h-3q-65 0 -65 14q-31 35 -31 74zM441 1100q88 -66 217 -181v-3q-88 -116 -102 -130h-3q-170 185 -180 201q48 88 68 113zM364 970q33 -30 181 -198q0 -5 -99 -127l-183 147
q0 13 101 178zM254 778q86 -64 181 -144v-6q-25 -31 -45 -59h3q149 0 149 -28q243 -206 268 -234v-3q-87 -14 -87 -17l-20 3h-119q-154 168 -381 403v3q44 77 51 82zM195 676q321 -323 364 -384q-3 0 -3 -2q-42 2 -62 2h-76q-43 0 -119 3l-217 192q107 187 113 189zM553 558
q190 -10 190 -17q70 -94 70 -96q3 -70 3 -110v-3q0 -6 -6 -6q-256 225 -257 229v3zM779 518h3q31 -19 31 -22v-20h-3q-3 0 -31 39v3zM76 470q133 -110 198 -172v-3q-188 3 -240 3q-6 10 -14 82q43 78 56 90z" />
    <glyph glyph-name="a" unicode="a" horiz-adv-x="833" 
d="M418 1148q94 -40 104 -51h-2q-167 27 -167 34q54 17 65 17zM314 1119q302 -51 302 -65q39 -15 39 -28q23 -67 76 -248l-5 -3q-149 81 -288 141q-161 71 -308 122l-3 5v23q0 8 187 53zM130 1023q229 -81 471 -197q120 -63 133 -74q3 -38 3 -48l-6 -2q-197 73 -412 124v3
q0 4 37 34h3l34 -3v3q-26 33 -26 39q-180 -37 -203 -37q-65 5 -65 17q17 84 31 141zM96 863q11 -3 20 -3v-6h-14l-6 -3l-3 6zM305 817q234 -59 435 -132q5 -70 5 -93q0 -8 -39 -46q-177 79 -486 204v5q9 0 85 62zM195 744l268 -107v-6q-35 -8 -45 -8q-5 0 -71 17
q0 -12 -11 -17l-245 62q0 24 84 51q0 3 20 8zM82 668q248 -51 248 -65q-22 -40 -22 -45q-243 75 -243 82v2q14 26 17 26zM480 628q169 -68 217 -99v-25q20 11 29 11q87 -37 87 -48q-8 -34 -14 -42q-220 111 -339 158v6q13 34 20 39zM57 623q242 -74 254 -88v-20q25 14 28 14
q190 -74 429 -197v-3q-1 -4 -107 -42q-99 45 -156 59l-14 -3h-14l-392 113l-65 105v2q33 59 37 60zM455 569q128 -49 341 -158v-6l-17 -62q-6 0 -189 93q-103 48 -234 102v3q9 5 17 5h73q0 9 9 23zM99 436q151 -42 322 -93v-5l-229 -15q-85 62 -85 91q-2 0 -11 20q3 0 3 2z
" />
    <glyph glyph-name="b" unicode="b" horiz-adv-x="912" 
d="M268 1424q6 -14 6 -65v-42l-3 -6q-135 53 -251 93v3q1 6 6 6h28q42 0 214 11zM28 1387q135 -47 246 -93q3 -86 3 -127v-48h-3q-234 140 -246 153q-5 62 -5 113zM31 1249q357 -207 757 -491q17 0 67 -110h-2q-202 103 -229 124q-47 133 -62 133l-121 56q-15 -71 -26 -82
q-188 99 -372 175q-6 10 -6 15q0 40 -9 177q3 0 3 3zM441 1133q169 -15 169 -22q172 -211 172 -229q11 -82 17 -110l-6 -3q-265 190 -499 339v3q8 0 147 22zM40 1038h3q149 -58 372 -175q0 -25 -34 -71h-3q-163 98 -335 198q-3 33 -3 48zM43 970q13 0 327 -189l3 -6
q-2 -5 -28 -48v-6l2 -19q-2 0 -2 -3q-164 70 -291 118q-5 21 -11 153zM51 800q118 -36 305 -124l20 -90l14 3q31 0 152 3q135 -65 240 -122v-5q-146 -116 -169 -116q-286 203 -548 350q-4 0 -8 8q-3 69 -6 93zM644 741q228 -118 228 -121q8 -9 20 -40q-4 -1 -73 -76h-6
q-214 147 -214 150q35 87 45 87zM62 685q183 -98 500 -316q34 -25 34 -29q-1 -5 -102 -53q-82 41 -158 76v-3q-8 -44 -14 -62q-176 28 -248 56v3l-14 322q-3 0 -3 3zM593 637q118 -76 212 -147q0 -4 -12 -11q-88 48 -220 115q0 3 20 43z" />
    <glyph glyph-name="c" unicode="c" horiz-adv-x="748" 
d="M243 1108h6q39 0 158 -59q227 -104 276 -141q9 -28 14 -60l-98 -25q-155 42 -178 42q-30 26 -249 167q0 7 71 76zM336 1100q109 -9 150 -37q186 -94 186 -102l6 -28q-7 0 -167 85l-175 76v6zM494 1077q164 -22 164 -34v-11q0 -16 6 -42l-6 -3q-50 32 -164 84v6zM158 1018
q18 0 243 -155v-3l-82 -9l20 -107h-3q-113 51 -248 107l-3 6q49 161 73 161zM76 837q84 -25 266 -113q5 -26 5 -42v-102h-5q-120 94 -282 206v3zM57 772q239 -166 570 -440v-9q-14 0 -133 -25q-213 104 -392 186q-20 60 -82 209q29 79 37 79zM613 549h45q32 0 48 -82
q22 -59 22 -73v-3q-39 -56 -50 -56l-26 -6l-211 175zM432 510h6v-3h-6v3zM105 465q70 -29 358 -167v-6q-23 -2 -28 -5q-168 14 -184 22q-127 77 -127 79q0 5 -19 77z" />
    <glyph glyph-name="d" unicode="d" horiz-adv-x="830" 
d="M576 1560q188 -60 212 -82q0 -2 22 -20v-45q0 -30 -3 -90h-2q-19 5 -274 132q-9 0 -9 9q47 94 54 96zM525 1441q71 -32 71 -37h-6q-64 24 -70 31q0 6 5 6zM525 1416q249 -92 282 -119q-2 -110 -2 -166l-3 -6q-114 80 -285 192v6q0 23 3 90zM514 1297h3q159 -97 285 -192
v-3q0 -64 -3 -206q-3 0 -3 -2q-346 169 -508 231v6q13 0 127 25q65 -6 93 -6q0 -2 3 -2v2q3 119 3 147zM260 1122q175 -68 531 -240q0 -3 8 -5q-3 -34 -3 -48v-54q0 -24 -3 -71h-2q-275 202 -573 376q0 3 42 42zM203 1066q23 0 297 -178v-3q-65 -11 -88 -11q-65 3 -67 3
l-3 -12h-6q-243 102 -245 108v2q54 27 112 91zM76 961l254 -110v-5q-29 -82 -39 -82q-268 145 -268 146q0 3 -3 17q51 34 56 34zM31 885h6q193 -102 260 -144q37 -116 42 -118l85 -54l84 45q132 -83 277 -212v-2q-9 -15 -34 -46q-144 29 -167 29q-19 -12 -28 -12
q-229 88 -454 150q-31 91 -31 102q0 164 -23 200q0 5 -17 62zM514 879q147 -93 279 -197v-42l-2 -6q-53 30 -221 113q0 6 -59 132h3zM568 733q169 -85 225 -119l-2 -14v-34q0 -43 -3 -141h-3q-132 109 -271 203q44 105 54 105zM113 501q240 -65 426 -138v-6q-3 0 -130 -70
q-174 70 -189 87q-98 95 -98 99q-9 14 -9 28z" />
    <glyph glyph-name="e" unicode="e" horiz-adv-x="808" 
d="M429 1083q101 0 223 -62q68 -18 68 -54q20 -86 51 -175l-6 -3q-336 200 -491 271v3q10 3 155 20zM257 1052q159 -72 469 -254q59 -29 59 -51v-31l-282 124v3l5 8v6q-8 4 -76 51q0 -4 -37 -23q-95 37 -259 93l-3 6q111 68 124 68zM630 1049h2q74 -18 74 -28v-6
q-76 28 -76 34zM122 967q151 -51 254 -88v-2q-29 -19 -29 -23q-2 -11 -2 -23v-14l-3 -5h3q118 25 132 25q286 -126 311 -144v-51q0 -5 -6 -5l-56 8l-232 -11q-241 143 -437 254q12 20 65 79zM45 874h6q229 -127 406 -234v-6l-124 -6v-3q12 -30 12 -39l-322 124v3
q7 158 17 158zM20 693h3q228 -82 333 -130q0 -29 59 -36q55 -20 90 -23q211 -94 212 -99v-45q0 -7 -245 -70h-26q-165 128 -344 242zM678 566q42 -29 53 -42v-11q0 -15 -8 -17l-85 53q9 7 40 17zM610 546q81 -43 116 -70q-3 -54 -9 -54q-185 88 -197 88v5q67 31 90 31z
M124 498h3q148 -93 291 -206v-2l-34 -3h-99q-144 149 -144 178q-2 0 -17 28v5z" />
    <glyph glyph-name="f" unicode="f" horiz-adv-x="616" 
d="M254 1498h71q23 0 240 -147l3 -6q-45 -81 -82 -135h-6q-190 194 -237 223q11 57 11 65zM367 1498q186 -50 186 -65q39 -29 43 -37q-16 -31 -23 -34q-92 64 -206 133v3zM246 1416q221 -196 226 -226q-16 -20 -17 -20q-14 13 -14 20h-6q-20 -32 -20 -59q85 19 99 19
q2 0 17 -19q-3 -64 -3 -79l37 -88h-6q-191 153 -389 274q-32 14 -46 28q110 94 111 121q3 29 11 29zM113 1255q188 -109 412 -280q68 -54 68 -73q-3 0 -3 -3q-92 20 -101 20q-94 -31 -105 -31q-99 102 -257 245q-25 105 -25 113zM122 1114h2q81 -66 246 -235v-56l3 -34
q-3 0 -3 -3q-208 180 -344 271q-3 3 -6 37l8 6h12q82 0 82 14zM34 1035q149 -100 339 -274q8 -271 8 -311h-3q-231 241 -259 274q0 15 14 161l-82 -37q-6 18 -23 184zM116 699h3q49 -47 211 -220h-2l-218 169zM113 628q191 -151 271 -209v-65h-6q-170 163 -273 238
q2 36 8 36zM102 569h8q100 -71 260 -229q-8 -16 -42 -53q-20 5 -167 90l-73 -8l-3 5q17 168 17 195z" />
    <glyph glyph-name="g" unicode="g" 
d="M271 1128q181 -19 297 -68h11q102 11 149 20q33 0 65 -42h3q-13 -48 -22 -48q-270 76 -469 115q-34 6 -39 6q0 8 5 17zM251 1100q66 0 520 -125l3 -5q-7 -26 -26 -26h-17l28 -73q0 -10 -19 -20q-165 85 -424 170q-101 33 -101 36q23 33 36 43zM203 1043q306 -93 528 -203
l3 -6q-39 -44 -39 -53q14 -33 19 -54q-3 0 -3 -3l-259 79v3l39 88l-84 -23q-24 3 -40 3h-14l-23 -40l-254 62q-8 49 -8 57q123 74 124 79q0 4 11 11zM85 879q243 -55 243 -62q-8 -11 -20 -81q-3 0 -3 -3l-217 98l-6 46q3 0 3 2zM93 809h3q192 -78 209 -96l-3 -17v-3
q4 3 26 14q169 -77 282 -146q-2 -6 -74 -74q25 -35 159 -73q79 -39 79 -43h-3q-343 113 -641 187v3q4 0 23 28zM457 786q266 -76 266 -82q15 -33 22 -62l-121 -70q-90 52 -277 141v3q42 31 57 31l79 -51v3l-31 84zM122 544q244 -57 536 -150q122 -40 130 -45v-3l-26 -127h3
q24 -3 40 -3h11q6 -1 6 -5q-10 -23 -15 -23q-251 137 -544 248q-178 57 -178 62q32 46 37 46zM82 481q343 -109 610 -248q106 -55 110 -62v-3q-39 -84 -51 -84q-326 115 -356 115v6q113 -6 122 -9q28 23 28 26v5q0 19 -3 57l-147 -68q0 3 -2 3l14 85h-3q-79 -14 -79 -20
q-14 -57 -26 -57q-218 54 -231 60q-8 52 -8 70q14 25 14 37q0 24 2 85zM74 270q194 -48 220 -57v-5l-17 -31h3q74 17 82 17q32 0 375 -119v-3q-52 -56 -68 -56q-20 -3 -51 -3h-59q-189 90 -341 150q-144 46 -150 53q6 9 6 14q0 2 -3 37q3 0 3 3zM65 199q264 -87 455 -183v-6
h-3q-16 0 -116 -3q-82 -36 -90 -36q-130 29 -130 42q-32 59 -40 59q-121 33 -121 43q38 82 45 84zM203 -15l82 -23v-5q-54 -23 -59 -23l-28 48z" />
    <glyph glyph-name="h" unicode="h" horiz-adv-x="878" 
d="M297 1526l2 -6v-8h-2l-20 5v6zM229 1520h3q22 0 62 -28v-3q0 -6 -6 -6q-54 31 -59 31v6zM195 1517q83 -41 96 -53l-6 -26q20 -56 79 -245l-5 -3q-153 48 -331 90l-2 6q0 33 -6 155q88 73 104 73q47 3 71 3zM31 1266q196 -48 342 -96q0 -42 56 -42q257 -93 257 -105
q0 -6 127 -228v-6q-301 181 -782 390l-3 19v62zM34 1162q577 -255 788 -398q-3 0 -3 -3q-226 119 -559 240q-127 42 -223 68l-3 5q-3 72 -3 85q3 0 3 3zM37 1054q250 -70 463 -160v-6q-49 -9 -62 -9h-6q-42 0 -113 3l14 -67q-277 115 -293 127l-6 110q3 0 3 2zM40 919h3
q175 -66 296 -127q0 -10 20 -96l-6 -3q-127 48 -308 99zM511 888q211 -88 313 -150l23 -214q-3 0 -3 -3l-308 183q-28 8 -28 91v87zM51 778q177 -51 311 -102q8 -27 8 -45h-3q-115 48 -322 116v25q1 6 6 6zM51 730q193 -62 325 -116l48 -228l-46 -43q-10 0 -285 65
q-33 0 -33 20q-6 89 -12 299q3 0 3 3zM522 693q50 -20 291 -172q37 -14 37 -23v-8l-3 -6q-115 54 -316 141q0 11 -9 68zM539 606q164 -68 314 -141q5 -45 5 -71q-5 -3 -8 -3q-166 94 -305 161q-3 4 -9 51q3 0 3 3zM551 535q167 -85 279 -149l3 -6q-52 -37 -155 -54
q-84 -14 -94 -14q-16 82 -36 220q3 0 3 3zM60 397h2q58 -9 297 -65v-6q-18 -31 -60 -31q-79 -8 -166 -8q-73 93 -73 96v14z" />
    <glyph glyph-name="i" unicode="i" horiz-adv-x="322" 
d="M127 1399q61 -3 91 -3h11q34 0 73 -40v-14q0 -5 -5 -5q-131 45 -170 56v6zM82 1396l220 -76l-3 -12q0 -11 -5 -127q-4 0 -31 -25h-3q-103 78 -232 161l-2 6v39q43 34 56 34zM28 1300q145 -93 221 -155v-3q-158 -14 -178 -14q-18 23 -51 56l3 34v76q1 6 5 6zM251 1136h3
q17 -68 17 -87v-45l3 -29h-6q-106 37 -242 74l-3 28q7 6 73 11q68 26 155 48zM31 1032q143 -37 243 -76v-3q0 -19 6 -153l-6 -2q-92 55 -246 138v17q0 24 -2 76zM34 916q182 -97 246 -141q2 -44 2 -65h-2q-237 85 -243 85q-3 5 -3 8q-3 95 -3 110q3 0 3 3zM40 778
q20 0 240 -85q4 0 11 -209l-6 -3q-128 102 -245 173v124zM45 631q86 -46 246 -169q3 -52 3 -76v-12q0 -11 -48 -87h-3q-170 57 -181 70q-11 17 -11 23l-8 248q2 0 2 3z" />
    <glyph glyph-name="j" unicode="j" horiz-adv-x="401" 
d="M288 1402l45 -48v-6h-5q-59 45 -65 45v6zM240 1396q76 -56 93 -73l-3 -34v-96l-2 -6q-96 42 -254 102v53q33 45 45 45q73 9 121 9zM79 1272q72 -26 240 -96v-3q0 -13 -11 -23q39 -58 51 -70q5 -183 5 -232h-2q-171 160 -252 218v5q23 0 147 60v2l-20 3q-24 0 -110 3
q-49 28 -53 37v90q1 6 5 6zM79 1069h9q75 -52 279 -249v-73h-3q-85 54 -313 189l-3 6v118q0 9 31 9zM54 916q200 -112 316 -192v-45q0 -32 3 -99h-3q-187 153 -319 254v74l-3 5zM51 812h6q189 -145 316 -254q3 -67 3 -99v-34l2 -20q-2 0 -2 -3q-158 98 -322 173v5
q0 47 -3 232zM60 558q198 -96 318 -178q3 -113 3 -169l-17 -17q-199 172 -307 245v3q0 8 -3 113zM57 417h5q119 -83 297 -235q-54 -84 -105 -135q-6 0 -124 68q-72 39 -79 39v9q44 18 62 42q-26 0 -53 70q-3 28 -3 54v88zM43 146q118 -61 197 -113q-70 -85 -96 -85l-51 -14
q-9 3 -73 68q14 144 23 144z" />
    <glyph glyph-name="k" unicode="k" horiz-adv-x="678" 
d="M23 1464q130 -54 169 -68l68 11l3 -5v-77l-3 -5q-61 22 -234 79q0 19 -6 62q3 0 3 3zM31 1382q220 -69 232 -82v-175q0 -6 -6 -6q-120 78 -229 141v63q0 18 -2 56zM34 1241q105 -60 226 -141l3 -6v-104h-3q-214 87 -229 95v91q0 20 -3 62zM429 1156h3q200 -26 200 -34
q-2 -4 -2 -14q19 11 28 11v-70q0 -12 -82 -155l-172 127q17 21 34 31q-3 7 -9 104zM37 1066q112 -43 226 -96l-3 -14v-60q31 29 56 48q148 -62 226 -115v-3q-40 -79 -48 -82q-304 192 -460 274v42zM390 1009h3q122 -85 175 -130q0 -7 -15 -33h-8q-79 50 -212 107v5
q15 19 57 51zM40 998q149 -78 449 -265v-6l-3 -6l62 -132h-3q-243 125 -508 220v3q0 60 -3 183zM43 792q242 -88 499 -217q22 -10 34 -43q56 -116 79 -166q0 -31 -39 -31q-19 -3 -37 -3l-263 192q0 6 -34 42v-20h-5q-99 66 -237 150v59l-3 34zM43 676q142 -83 239 -152
q3 -115 3 -172v-6q0 -4 -11 -11q-209 76 -229 87l-5 251q3 0 3 3zM362 470h2q121 -81 192 -141v-3q-92 -11 -96 -14q-5 4 -8 45q-8 5 -90 113zM48 405q189 -71 215 -84l-26 -34q-168 39 -180 45q-12 12 -12 14v54z" />
    <glyph glyph-name="l" unicode="l" horiz-adv-x="452" 
d="M257 1472q41 -8 68 -31v-20q0 -43 3 -141h-3l-297 110l-5 9v11q0 14 -3 42q0 6 237 20zM26 1373q170 -53 302 -113q5 -156 5 -200l-5 -3q-85 62 -291 184l-3 5q0 22 -8 127zM37 1221h6q184 -107 290 -183q3 -31 3 -54v-62q-121 53 -285 110q-3 20 -14 189zM57 1015
q203 -68 279 -113q3 0 3 -3q3 -154 3 -183q3 -25 3 -31q-3 0 -3 -3q-107 76 -280 186l-11 144zM65 848q147 -87 280 -192v-62l19 3h3q46 -49 65 -73v-14q0 -6 -6 -6q-124 57 -347 141l-3 6l-11 192q-3 0 -3 3q3 0 3 2zM85 628q181 -67 339 -138l2 -6q-11 -124 -19 -124h-3
q-8 0 -186 116q-136 75 -136 85q0 2 3 2q-3 15 -6 62zM82 538q132 -76 280 -169v-6h-48q-34 -67 -48 -76q-42 2 -209 84q19 145 25 167z" />
    <glyph glyph-name="m" unicode="m" horiz-adv-x="1237" 
d="M68 1184l144 -34q4 0 39 3q58 0 144 -48q285 -132 396 -200q-48 -27 -48 -31q-2 -40 -9 -40q-272 115 -680 220q0 3 -3 3q7 127 17 127zM517 1145q353 -116 646 -206q42 -40 42 -65l12 -147q-11 -51 -17 -51q-227 142 -381 232q0 4 -43 22q-165 94 -409 203v6l37 -6z
M661 1139q5 0 110 -56q50 -9 82 -9q11 0 138 23q72 -49 147 -133h-3q-219 62 -491 155v3q0 4 17 17zM51 1038h3q186 -46 308 -85v-3q-40 -51 -48 -51q-123 63 -260 124l-3 6v9zM51 1009q75 -29 257 -127q-28 -133 -40 -158h-2q-226 70 -226 76q8 167 8 206q3 0 3 3zM435 930
q187 -59 302 -113v-2q0 -3 -3 -3l3 -20v-17q0 -28 3 -85q-3 0 -3 -2q-82 45 -325 163v3q4 1 45 56q-9 3 -22 17v3zM838 882q333 -202 359 -226q-6 -39 -14 -48q-337 173 -342 181v3q3 56 3 62q-11 20 -11 25zM412 831h3q13 0 322 -160q4 -12 8 -122h-2l-302 116q5 67 5 102
q-34 59 -34 64zM43 781h2l221 -74v-11q0 -6 -6 -6l-217 85v6zM841 769q338 -174 339 -177q-37 -156 -45 -156q-64 54 -271 181q-8 0 -28 141v3zM43 761l217 -85q-54 -232 -65 -265h-3q-140 31 -169 39q14 278 14 308zM446 648q170 -62 297 -116l2 -5v-26l-2 -5
q-104 45 -302 124v22q0 6 5 6zM441 606q293 -120 307 -133v-3q0 -23 3 -104q-72 -55 -85 -62l-217 50l-23 34q3 34 12 215q3 0 3 3zM870 594q164 -95 265 -175v-2q-6 -19 -6 -26h-3q-223 90 -242 102q-14 73 -14 101zM889 470h3q156 -57 232 -99l-9 -17q-24 6 -31 6
q-13 -7 -28 -11q-129 61 -158 79zM28 434q170 -36 170 -43q8 -33 8 -70q-178 43 -178 53q-2 22 -8 37q3 23 8 23zM903 405h3q102 -44 133 -65l-127 -53l-3 5v62q-6 50 -6 51zM469 335q86 -20 93 -20v-6q-93 14 -93 23v3zM570 312h6v-5h-6v5z" />
    <glyph glyph-name="n" unicode="n" horiz-adv-x="813" 
d="M407 1167h8q224 -143 237 -161l76 -186h-5q-246 147 -536 271v6q8 0 64 11q7 -10 26 -48q15 9 130 107zM158 1088q295 -124 585 -296q19 -51 19 -79l-5 -3q-205 88 -300 124q0 34 -28 34l-28 11q-7 0 -45 -8q-149 51 -328 99l-2 5q-3 77 -6 94q12 5 138 19zM28 953h3
q24 0 291 -85v-5h-11v-184q0 -6 -6 -6q-152 78 -271 150q-6 94 -6 130zM460 815q18 0 302 -122q3 -1 31 -307l-5 -3q-123 92 -302 194q-17 171 -26 238zM37 800h3q271 -145 271 -149v-28l-3 -6q-91 39 -268 107q-3 38 -3 57v19zM45 707q210 -79 266 -107v-59q0 -6 -6 -6
l-262 130q0 22 -3 39zM48 645q96 -43 263 -130l-3 -14v-130q-18 -55 -31 -67l-212 45q-17 83 -17 296zM489 555h5q133 -76 136 -82h-6q-107 50 -135 68v14zM491 518q29 0 291 -149v-9q-61 -37 -85 -37q-182 97 -200 116q0 16 -6 79zM503 411q12 0 166 -90v-6l-130 -23
q-36 75 -36 108v11zM76 332q141 -28 147 -28v-3q0 -6 -5 -6q-24 0 -125 -8q-17 34 -17 42v3z" />
    <glyph glyph-name="o" unicode="o" horiz-adv-x="853" 
d="M641 1052q124 -123 124 -136v-8h-3q-242 76 -409 118v6q19 0 107 -3q163 23 181 23zM285 1029q197 -45 491 -144q48 -120 48 -200l9 -48q-21 -48 -26 -48q-117 72 -265 149q-13 34 -17 37l-14 -8q-61 36 -82 36t-115 51q-168 82 -198 93q16 48 54 48q102 34 115 34z
M105 936q38 -14 268 -127v-6h-28l-37 -56q-124 42 -265 82l-3 5q0 24 65 102zM43 815q153 -43 259 -82q-34 -61 -34 -65q34 -45 34 -51h-3q-129 59 -271 116v3q7 79 15 79zM26 716h2q203 -76 305 -133q15 -29 93 -90q40 25 48 25q161 -76 243 -124q0 -38 -70 -45
q-1 -2 -57 -17q-288 113 -525 192q-40 144 -45 155zM553 713h3q169 -84 246 -141q-16 -40 -23 -40l-203 110v3q0 3 3 3q-26 61 -26 65zM568 628q93 -45 208 -110q-35 -77 -53 -110q-158 85 -232 119v2q6 3 74 99h3zM74 507q172 -57 485 -178v-6l-144 -36q-278 70 -310 82
q-34 131 -34 138h3z" />
    <glyph glyph-name="p" unicode="p" 
d="M220 1077l29 -31q139 28 149 28q168 -144 407 -398q5 -60 5 -110l-296 189l17 62h-3q-166 7 -166 23q-159 79 -288 133v22q0 10 -9 51q4 6 155 31zM429 1066h6q147 -45 285 -108q85 -135 85 -143v-113h-6q-44 58 -325 324q-7 0 -45 40zM71 956h3q119 -47 302 -139v-5
q-48 -41 -48 -54q-31 -101 -31 -113l2 -14h-2q-223 165 -232 178q6 120 6 147zM65 786q159 -114 240 -183q11 -52 11 -59l-5 -3q-92 58 -254 130q5 84 5 112q3 0 3 3zM514 738q79 -48 302 -194q6 -53 6 -74q-109 -130 -113 -130l-48 -8l-218 186q17 0 43 141q22 79 28 79z
M60 654q221 -96 333 -187q0 6 5 6l218 -144v-6l-294 -64q-193 197 -271 265v3q2 127 9 127zM429 504h6q121 -98 203 -172h-3q-106 75 -223 149l-3 6zM48 501h3q46 -29 251 -245q-31 -198 -42 -240q-140 73 -232 113v3zM31 112q199 -89 226 -116q0 -39 -25 -62q-127 3 -164 3
q-48 18 -48 22q6 121 6 141z" />
    <glyph glyph-name="q" unicode="q" horiz-adv-x="858" 
d="M613 1121q192 -138 192 -141v-34q0 -14 2 -43q-2 0 -2 -2l-237 132h16q20 88 29 88zM678 1093h5q72 -34 119 -46v-36q0 -6 -6 -6zM426 1059q79 0 243 -99q39 -16 138 -79q3 -94 6 -127q-3 0 -3 -3q-417 285 -443 285v9q11 0 59 14zM342 1036q241 -136 471 -308v-11
q0 -14 3 -42l-6 -3q-258 152 -598 291v5q75 68 130 68zM192 954h3q98 -36 299 -130v-5q-124 5 -155 5q-6 3 -9 3v-14l-2 -6q-121 72 -187 105v6q0 2 51 36zM124 906q201 -108 201 -121q0 -17 -14 -113q36 -118 36 -127q-315 144 -327 152v139q18 18 104 70zM539 802
q177 -88 277 -150q6 -131 6 -186h-3q-157 123 -263 192v3q0 12 12 22l-32 116q3 0 3 3zM26 678q424 -188 804 -412l8 -223h-2q-93 84 -257 214v28l-3 6q-20 -11 -28 -11q-228 171 -522 350q-6 35 -6 45zM542 647h9q152 -105 273 -206q0 -51 6 -153q-3 0 -3 -3l-361 201
q0 25 76 161zM34 607q159 -90 440 -291q54 -38 60 -48q-65 -33 -74 -33q-157 93 -180 93q-147 21 -147 36q-82 129 -82 141l-20 99q3 0 3 3zM584 235q128 -99 254 -218v-14q0 -25 -183 -96h-3q-51 23 -51 57q-19 0 -19 237q-3 0 -3 31zM630 -99h5v-2h-5v2z" />
    <glyph glyph-name="r" unicode="r" horiz-adv-x="500" 
d="M381 1150q76 -11 76 -39q23 -42 23 -51q-29 -108 -37 -113q-158 83 -290 141v3q0 8 42 11q31 -25 31 -28q151 76 155 76zM130 1085q193 -89 311 -155v-3q0 -30 -43 -36q-372 65 -378 70v85q0 25 107 39h3zM23 944l355 -65v-5q-39 -51 -42 -51q-38 6 -51 6q-18 -8 -19 -14
v-51q0 -6 -6 -6q-111 51 -237 93v76l-3 15q3 0 3 2zM28 834q179 -62 238 -96q2 -5 2 -11v-82q0 -5 -5 -5q-87 28 -237 64q-3 67 -3 99v26q1 5 5 5zM28 688q152 -35 240 -65l3 -20q0 -33 3 -226q-32 13 -246 124q-2 75 -2 119v62zM34 481q233 -115 243 -129q-44 -26 -105 -37
q-125 54 -144 68v93q1 5 6 5zM31 363q95 -43 110 -48v-3q0 -5 -96 -25q-8 21 -17 73q3 0 3 3z" />
    <glyph glyph-name="s" unicode="s" horiz-adv-x="667" 
d="M333 1040q238 -82 288 -115q-14 -113 -34 -113q-22 -29 -31 -29q-267 142 -451 221v2q173 34 228 34zM395 1038q215 -21 215 -46q6 0 22 -14q-5 -13 -5 -34h-3q-160 67 -229 88v6zM96 992q147 -61 302 -144v-2q0 -2 -31 -31l-56 11q22 -20 22 -23h-5q-133 43 -271 71v8
q26 110 39 110zM60 860q168 -37 290 -79q9 -16 9 -26h3q0 2 2 17h12q11 -4 11 -22h3q14 11 17 11q14 -4 14 -9v-2l-3 -14q84 -14 127 -57q15 -16 102 -65v-3q-9 -80 -15 -90q-298 177 -570 271q-22 3 -22 14q6 54 20 54zM480 803h6q55 -28 59 -28v-6q0 -5 -9 -5
q-50 29 -56 39zM373 798h5v-12h-5v12zM421 775h5q0 -6 -5 -6v6zM68 772q177 -53 452 -200q106 -63 110 -71v-3q-6 -31 -12 -42q-249 104 -443 161q-76 18 -76 25q-18 14 -28 102zM119 617q44 -11 51 -11q-13 -40 -23 -40l-28 45v6zM277 569h3l107 -37v-5q-6 0 -40 -9z
M133 538q8 -3 28 -62l68 17q3 0 51 -34q13 6 36 11q122 -63 266 -155l2 -6q-5 -2 -8 -2q-23 0 -234 -20q-46 3 -91 3h-22q-209 39 -209 50q45 161 59 161zM401 527q156 -55 215 -88q-23 -106 -29 -110q-234 144 -248 144v6q17 28 54 28q1 20 8 20zM54 312h3q58 -14 67 -14
v-6h-42q-16 0 -28 20z" />
    <glyph glyph-name="t" unicode="t" horiz-adv-x="627" 
d="M172 1337q187 -18 187 -26q17 -60 17 -82q-3 0 -3 -2l-212 96q6 12 11 14zM155 1308q221 -95 223 -104q9 -66 9 -73h14q42 0 113 2q45 -38 45 -53q11 -28 11 -34v-3h-2q-228 88 -441 144q-3 6 -3 9q0 84 31 110v2zM127 1173q192 -51 409 -133q54 -14 54 -48q7 -7 17 -45
v-3q-61 -11 -245 -17q0 -8 -6 -8q-23 16 -282 150q13 25 25 81h23v17q0 6 5 6zM68 1054q241 -122 296 -155q6 -44 6 -118l-203 87v3q3 24 3 39v3q-95 12 -150 45q18 42 48 96zM170 848q206 -79 206 -93q2 -11 8 -93q-7 0 -223 121q3 37 3 60q1 5 6 5zM164 764
q223 -117 223 -130q11 -53 14 -54q20 12 25 12v2l-5 9v3l25 -3v-6l-11 -3v-2q43 -51 107 -65q17 -6 17 -12l-3 -25h-3l-265 110q-132 47 -135 51q5 99 5 110zM153 634q227 -78 398 -161v-3q-12 -79 -29 -144h-2q-177 120 -370 215l-3 28q0 45 6 65zM155 518
q117 -45 345 -195q0 -4 20 -14q0 -9 -9 -22q-152 25 -152 39l-195 155z" />
    <glyph glyph-name="u" unicode="u" horiz-adv-x="726" 
d="M680 1145q7 0 9 -198q-3 0 -3 -3q-248 115 -257 122v8q62 43 107 43q47 -20 60 -20h3v11l-34 11v6q7 0 115 20zM220 1136q26 0 26 -62q3 0 5 -20q-2 0 -2 -2q-146 39 -161 39v3q0 7 132 42zM54 1085q200 -45 200 -56l14 -102q-2 0 -2 -2q-82 31 -238 84v62q0 4 26 14z
M432 1043h3q257 -110 257 -121v-12q0 -5 -6 -5l-245 87q-6 6 -9 51zM31 995q236 -82 240 -90q6 -26 11 -76q-2 0 -2 -3q-133 34 -257 56l3 34v74q1 5 5 5zM441 975h2q97 -28 249 -90v-138q-234 102 -240 107q-11 107 -11 121zM28 865q40 0 257 -56l17 -113h-3
q-261 113 -276 124v40q1 5 5 5zM457 834q203 -86 238 -110q2 -15 2 -25v-3q0 -6 -5 -6q-88 34 -232 85q0 8 -5 56q2 0 2 3zM26 800q134 -56 273 -121q-5 -22 -25 -121q87 -12 93 -14q14 5 116 33v3l-3 6q3 0 3 3q127 -63 220 -119v-39q0 -23 3 -60q-4 -11 -9 -11
q-424 147 -671 212v3q-6 92 -6 146v62q0 8 6 17zM469 755q140 -45 228 -84v-3q3 -98 3 -153v-2l3 -20q-27 11 -206 104q-25 0 -25 91q-3 0 -9 64zM34 555q309 -82 658 -209q-11 -25 -20 -28q-155 42 -186 53l-133 -84h-6q-240 127 -251 135q0 6 -68 113v14q1 6 6 6z" />
    <glyph glyph-name="v" unicode="v" horiz-adv-x="811" 
d="M65 1133l167 -50l65 14q36 -101 56 -164h-3l-316 150q19 50 31 50zM587 1105q181 -12 181 -25q23 -13 23 -20q-70 -177 -85 -197q-116 81 -189 124v3q37 107 59 107q0 4 11 8zM28 1069q208 -94 336 -161q29 -84 29 -96q-162 107 -370 237l-3 5zM37 1021
q209 -124 370 -240q3 -14 8 -14v5q14 0 192 -138q3 -6 3 -9q-21 -52 -28 -56q-191 115 -463 229l-85 220q3 0 3 3zM511 975q152 -96 189 -129q-31 -85 -36 -85q-195 110 -201 116q38 86 48 98zM457 860q128 -69 201 -113v-3q-31 -83 -42 -99l-190 144q0 10 31 71zM130 778
q327 -141 449 -226q-72 -173 -79 -181h-3l-299 221q-11 25 -71 183q3 0 3 3zM212 561q169 -116 288 -212v-57q0 -5 -9 -5q-86 35 -220 110l-62 164h3zM285 371q32 -17 37 -17v-5h-3l-28 -3q-9 19 -9 23q3 0 3 2z" />
    <glyph glyph-name="w" unicode="w" horiz-adv-x="1175" 
d="M235 1150q90 -44 90 -59l3 -17q-3 0 -3 -3q-99 14 -271 29l-3 5q0 12 107 28q0 3 77 17zM1059 1136l96 -76q0 -4 -9 -8q-101 48 -164 67v6zM946 1119q132 -48 200 -84q-41 -127 -48 -130q-119 34 -307 79q14 121 22 121q113 14 133 14zM638 1094h76q14 -18 14 -96
l-262 54v5q1 6 6 6h11zM43 1085q287 -22 287 -33q0 -15 12 -91q-3 0 -3 -3q-197 60 -319 91v3q0 17 23 33zM460 1035q201 -31 277 -57q22 -154 22 -166h-2q-143 62 -336 124v6q33 85 39 93zM31 1032q302 -82 314 -93q5 -34 5 -85q-141 37 -288 65q-11 24 -34 110q3 0 3 3z
M791 967q74 -11 307 -76v-3q-68 -199 -68 -206h-2l-260 124q20 157 23 161zM415 922q203 -62 347 -127q0 -4 65 -28q191 -99 195 -99v-3q0 -6 -14 -54q-11 0 -302 127q-205 74 -319 105l-3 5zM71 902q146 -25 285 -65q6 -16 6 -45h2q10 39 17 39q302 -89 568 -211
q49 -23 50 -28q-39 -130 -48 -130q-170 84 -350 166q-32 90 -39 93q0 -9 -23 -67h-3q-148 62 -440 152q-25 65 -25 96zM102 789h3q241 -73 429 -149v-3q-17 -55 -26 -57q-153 48 -375 102q-31 92 -31 107zM139 662q230 -48 369 -99q-46 -135 -53 -138q-107 34 -266 68
q-22 71 -50 169zM616 606q170 -76 335 -161v-3q-2 -14 -11 -14q-142 56 -302 113q-5 16 -25 62q3 0 3 3zM649 518q110 -31 288 -104l3 -6q-12 -56 -59 -90q0 -4 -14 -14q-156 14 -156 42q0 18 -62 172zM201 473q233 -77 242 -87v-3q-11 -62 -42 -62l-130 -34q-41 54 -65 149
l-11 34zM356 439q92 -23 96 -31l-3 -6q-61 23 -93 32v5z" />
    <glyph glyph-name="x" unicode="x" horiz-adv-x="827" 
d="M110 1122l215 -22q19 2 31 2q78 -173 82 -175q82 164 87 167q34 6 43 6q77 0 225 -51q0 -2 14 -17q-179 -233 -197 -251h-3q-235 150 -457 254q-79 32 -85 39q43 48 45 48zM51 1060q180 -67 469 -240q78 -49 79 -53v-3l-40 -51q11 -15 11 -28q-201 96 -383 163
q-131 186 -142 206v3zM206 823h6q225 -85 384 -167l175 -285h-3q-243 141 -545 288v3l51 62zM215 648q289 -140 542 -288l2 -6q-26 -33 -76 -33q-60 28 -223 93q-44 61 -48 70l-39 -39q-191 70 -251 87q0 13 84 110q0 6 9 6zM110 524q252 -88 252 -93v-3q-74 -78 -74 -121
q-6 -1 -6 -6q-193 59 -206 68q-56 45 -56 48q79 99 90 107zM483 388l175 -70v-6q-7 0 -130 -25q-6 5 -23 65q-2 0 -25 34q3 0 3 2z" />
    <glyph glyph-name="y" unicode="y" horiz-adv-x="898" 
d="M833 1083q7 -9 45 -88q-61 -156 -68 -158q-85 72 -262 201v2q0 17 90 17q0 3 195 26zM266 1052q59 -11 59 -43q3 -2 31 -84h-3q-187 76 -282 104v9q4 0 11 5q30 0 184 9zM57 1021q170 -57 305 -116q5 -7 64 -178h-5q-133 80 -378 212l-23 56q33 26 37 26zM548 1018
q148 -103 257 -195v-3q0 -9 -40 -96l-265 136q37 147 48 158zM57 913h3q251 -135 378 -214q8 -26 8 -31h3q0 7 8 20q5 0 229 -147v-6q-24 -70 -31 -70h-3q-170 102 -347 172q-149 56 -158 62zM500 843q96 -45 259 -133v-3q-60 -147 -67 -155q-133 91 -232 152v6
q33 132 40 133zM161 676q332 -121 488 -228q-49 -133 -59 -139q-211 151 -381 252q-43 95 -48 115zM226 532q215 -127 358 -240q0 -5 -45 -115h-3l-265 104v6q28 61 28 67q-76 174 -76 178h3zM266 267q204 -76 265 -107v-3q-67 -161 -74 -167q-94 72 -239 164v3
q33 89 48 110zM212 140q140 -84 240 -167l-9 -28h-5q-13 0 -57 17q-146 -28 -172 -28q-64 54 -65 59q56 130 68 147z" />
    <glyph glyph-name="z" unicode="z" horiz-adv-x="799" 
d="M119 1080q395 -7 395 -26q149 -39 265 -84v-3q-147 -212 -149 -212h-3q-81 34 -373 170q-193 76 -220 93v31q0 6 85 31zM542 1066q11 0 169 -6q41 -46 57 -68h-3q-156 51 -223 68v6zM34 995h6q235 -90 341 -147h-3q-155 51 -344 94v53zM40 925q53 0 423 -119
q104 -37 155 -70l-144 -215h3q186 28 206 28q61 -76 65 -76q-9 -145 -14 -158q-230 123 -570 282v6q141 226 141 231h-3q-246 43 -268 48v37q1 6 6 6zM155 586q356 -167 571 -282v-3q-52 -14 -62 -14q-413 8 -413 31q-212 60 -220 68q113 186 124 200zM28 369l204 -60v-5
q-121 5 -158 5l-54 57q5 3 8 3z" />
    <glyph glyph-name="sterling" unicode="&#xa3;" horiz-adv-x="863" 
d="M511 1488q110 -17 225 -27l74 -88v-20l3 -40q-6 0 -262 131q-64 27 -64 33v4q24 0 24 7zM453 1467q222 -97 360 -181v-7q-19 -19 -108 -154q-82 -24 -90 -24q-75 22 -108 74q-22 -3 -43 -3q36 -63 36 -74v-7h-3q-226 199 -292 249v6q131 105 195 105q31 14 53 16z
M181 1333h7q158 -128 323 -279q6 -28 6 -34l-17 -40l34 4h54q99 -89 195 -189q-34 -56 -41 -94q-249 189 -463 309q-44 16 -78 74q-2 0 -70 91q0 12 50 158zM208 1024h4q203 -95 530 -346q-3 -43 -10 -51l-238 41q0 -7 -41 -27v-4l84 -87v-3q0 -6 -13 -14q-246 244 -393 367
q-3 23 -3 36v27q0 5 80 61zM789 1000h7q47 -87 47 -97q-41 -81 -54 -87l-171 164v4q45 3 67 3h44q40 0 60 13zM104 893h7q118 -86 470 -444q0 -8 195 -205l37 -47v-13h-10q-120 90 -387 322q-141 112 -346 232l-3 7v138q0 10 37 10zM70 718l105 -60v-10q-89 -51 -95 -51
q-13 15 -13 17v97zM181 648h4q147 -80 500 -394l118 -94q0 -7 -175 -20q-11 0 -107 98q-172 158 -336 285l-4 7v118zM544 516h4q274 -78 275 -84v-3q0 -41 3 -191q-3 -21 -10 -21q0 12 -184 199l-88 97v3zM185 496h3q131 -89 403 -352q0 -7 -10 -7q-37 0 -188 -14
q-178 98 -319 165l-4 7q115 141 115 158v43zM64 275q184 -88 285 -152v-3q-71 -3 -279 -20q-50 112 -50 128q35 47 44 47z" />
    <glyph glyph-name="yen" unicode="&#xa5;" horiz-adv-x="1042" 
d="M813 1404q146 -33 186 -48q23 -27 23 -31q-39 -70 -45 -73q-138 60 -249 102v2q7 40 37 40q40 8 48 8zM271 1382q40 -46 40 -48q-3 0 -3 -3l-212 37v5q139 6 175 9zM74 1359q236 -42 254 -48l217 -307v-3h-3q-211 94 -451 180q-71 96 -71 108zM723 1342l245 -101v-3
q0 -8 -34 -68h-5q-227 93 -243 96v3q29 73 37 73zM680 1255q170 -65 243 -102l-59 -107q-11 0 -175 116q-42 25 -42 34q27 58 33 59zM635 1176q12 0 215 -141l3 -6q-74 -128 -74 -133q-12 0 -197 85q-31 12 -31 20q79 155 84 175zM110 1159q235 -80 658 -277v-3l-6 -8v-3h3
q47 0 141 -51q13 -2 45 -22q-29 -102 -36 -102h-14v-3q8 -33 8 -48q-300 203 -770 469q-8 13 -32 45q3 0 3 3zM167 1074q11 0 451 -259q241 -151 291 -195l-34 -31q-272 127 -640 248v3q0 4 25 23h3q19 0 56 -12v3l-152 217v3zM918 902v-3q-20 -21 -20 -25q56 -50 56 -62h-3
q-80 39 -87 39v6q20 0 31 20q-6 0 -6 5q24 20 29 20zM220 826q398 -128 641 -249v-2q-17 -17 -17 -29v-19q0 -6 -6 -6l-158 -8l17 -57q-2 0 -2 -3q-248 157 -511 285q-14 9 -20 9v5q44 66 56 74zM150 736h3q226 -104 496 -271q62 -34 62 -60q15 -49 15 -53l-6 -3
q-15 8 -288 96v3q3 30 3 53v9h-175l-20 -3l-37 42q0 12 43 88q-11 56 -28 56l-68 34v9zM870 693q0 -1 -3 -11q14 7 14 11h-11zM432 428h3q246 -74 282 -96l-59 -45q-229 44 -229 65q0 20 3 76z" />
    <glyph glyph-name="Euro" unicode="&#x20ac;" horiz-adv-x="1056" 
d="M548 1340q339 -46 477 -82l11 -71q-60 -179 -73 -181h-3q-198 171 -361 280q-57 32 -68 45v3q5 0 17 6zM514 1323q169 -99 440 -331v-2q-18 -32 -22 -32q-3 1 -96 127q-29 -16 -130 -64q-58 5 -141 50q-100 47 -229 99q47 105 65 105q108 48 113 48zM333 1156
q86 -34 237 -102v-5q-14 -1 -25 -51q-4 -3 -17 -37q248 -10 248 -17q67 -41 82 -45q0 -12 -70 -107h-62v-3q7 0 33 -31h-2q-199 138 -472 294v2q22 71 48 102zM282 1038q317 -180 548 -353v-3q0 -4 -45 -45q-7 0 -178 90q-232 119 -460 217v3q12 0 23 57h2q4 0 79 -31
q25 64 31 65zM838 981h3l20 -65q-3 0 -3 -3q-49 29 -53 29v5q9 0 33 34zM136 933q238 -102 542 -257q82 -45 93 -53q-40 -31 -40 -62l-5 -3q-304 194 -610 352l-3 6zM102 902q318 -164 624 -361v-9l8 6q189 -120 189 -130q0 -41 23 -85q-15 -8 -34 -8q-351 209 -878 409v3
q0 62 37 85l3 5v3q-26 34 -26 40q44 37 54 42zM34 710q536 -205 855 -401v-2l-79 -20q-157 22 -330 76q-90 22 -90 39l-153 164q-31 0 -177 -8q-9 15 -40 87q8 60 14 65zM791 572h67q57 -13 57 -45q5 -33 8 -91q-3 0 -3 -2q-170 110 -172 115q34 23 43 23zM632 515
q9 0 46 -14q35 23 42 26v2h-6q-82 -6 -82 -14z" />
    <glyph glyph-name="uniF001" unicode="&#xf001;" horiz-adv-x="7" 
 />
    <glyph glyph-name="uniF001" unicode="&#xfb01;" horiz-adv-x="7" 
 />
    <glyph glyph-name="uniF002" unicode="&#xf002;" horiz-adv-x="7" 
 />
    <glyph glyph-name="uniF002" unicode="&#xfb02;" horiz-adv-x="7" 
 />
  </font>
</defs>
</svg>
